<svg xmlns="http://www.w3.org/2000/svg" xmlns:xlink="http://www.w3.org/1999/xlink" width="540" height="200" xmlns:v="https://vecta.io/nano"><path d="M380.019 58.694l3.682-.048 3.971-.016 4.096-.027 8.584-.027 10.947-.089 8.463-.038 5.982-.066c7.363.036 12.647.582 18.257 5.618 5.365 5.915 5.354 9.969 5.111 17.77-.366 7.373-1.216 14.717-2.027 22.052l-.955 9.201-.645 5.906-.269 2.75c-.747 6.421-1.941 11.24-6.825 15.835-5.812 4.28-11.666 4.229-18.668 4.185l-3.533.022c-2.457.008-4.913.003-7.37-.014-3.743-.019-7.482.02-11.224.065a2388.69 2388.69 0 0 1-7.186-.01l-3.363.046c-7.488-.111-12.533-1.587-18.048-6.808-3.539-4.896-3.802-10.399-4.387-16.262l-.323-2.989-.652-6.251-1.007-9.473-.643-6.1-.303-2.82C359.761 71.935 359.761 71.935 364 66c4.939-4.953 9.032-7.237 16.019-7.306z" fill="#020202"/><path d="M200.019 58.694l3.682-.048 3.971-.016 4.096-.027 8.584-.027 10.947-.089 8.463-.038 5.982-.066c7.363.036 12.647.582 18.257 5.618 5.365 5.915 5.354 9.969 5.111 17.77-.366 7.373-1.216 14.717-2.027 22.052l-.955 9.201-.645 5.906-.269 2.75c-.747 6.421-1.941 11.24-6.825 15.835-5.812 4.28-11.666 4.229-18.668 4.185l-3.533.022c-2.457.008-4.913.003-7.37-.014-3.743-.019-7.482.02-11.224.065a2388.69 2388.69 0 0 1-7.186-.01l-3.363.046c-7.488-.111-12.533-1.587-18.048-6.808-3.539-4.896-3.802-10.399-4.387-16.262l-.323-2.989-.652-6.251-1.007-9.473-.643-6.1-.303-2.82C179.761 71.935 179.761 71.935 184 66c4.939-4.953 9.032-7.237 16.019-7.306zm-180 0l3.682-.048 3.971-.016 4.096-.027 8.584-.027 10.947-.089 8.463-.038 5.982-.066c7.363.036 12.647.582 18.257 5.618 5.365 5.915 5.354 9.969 5.111 17.77-.366 7.373-1.216 14.717-2.027 22.052l-.955 9.201-.645 5.906-.269 2.75c-.747 6.421-1.941 11.24-6.825 15.835-5.812 4.28-11.666 4.229-18.668 4.185l-3.533.022c-2.457.008-4.913.003-7.37-.014-3.743-.019-7.482.02-11.224.065a2388.69 2388.69 0 0 1-7.186-.01l-3.363.046C19.559 141.697 14.515 140.221 9 135c-3.539-4.896-3.802-10.399-4.387-16.262l-.323-2.989-.652-6.251-1.007-9.473-.643-6.1-.303-2.82C-.239 71.935-.239 71.935 4 66c4.939-4.953 9.032-7.237 16.019-7.306z" fill="#010101"/><use xlink:href="#B" fill="#fdc500"/><use xlink:href="#B" x="-180" fill="#fec500"/><use xlink:href="#B" x="-360" fill="#fdc500"/><path d="M202 85c4.858-.756 9.163-.989 14 0 4.245 3.455 7.004 7.453 10 12l3.125 4.25L231 104l1-10h-5l-1-1v-8h22v9h-5l.016 2.83.039 10.36.021 4.49.022 6.441.016 3.92C243 125 243 125 242 126c-3.474.701-6.538.793-10 0-2.947-2.561-4.707-5.629-6.625-9l-1.598-2.602A247.39 247.39 0 0 1 220 108v9l5 2v6h-20v-7h4l-.219-2.02c-.673-6.686-.898-13.263-.781-19.98h-5l-1-11z" fill="#f7f7f7"/><path d="M114 81h20v8h-4l.375 9.375.094 2.695.117 2.578.095 2.38c.159 2.201.159 2.201 2.319 3.971 3.042.25 3.042.25 6 0 1.584-1.584 1.22-3.277 1.316-5.473l.127-2.725.119-2.865.131-2.877L141 89h-4v-8h19l1 8h-3l.063 2.108.187 9.517.102 3.316c.077 6.355-.017 10.26-4.352 15.059-4.491 3.946-8.449 4.202-14.312 4.313l-3.926.113c-5.133-.581-8.197-2.645-11.574-6.488-2.126-3.468-2.307-6.291-2.285-10.262l.01-3.115.025-3.248.014-3.283L118 89h-4v-8zm373 0h12c3.199 6.135 6.351 12.235 8.883 18.68l.918 2.336 1.713 4.56c.865 2.344.865 2.344 2.486 5.424l4 1v10h-20v-9h3l-1-5h-10v4l5 1v9h-21v-9l4-1 .595-2.184 2.718-9.879.936-3.436c1.58-5.704 3.225-11.145 5.752-16.502z" fill="#060500"/><path d="M54.375 81.875C58 82 58 82 61 83l-1 15H49l-2-4-5 1c1.251 3.754 2.869 4.194 6.273 5.912l4.18 2.039C59.06 106.287 59.06 106.287 61 110c.629 3.461.287 6.853-.562 10.25-2.77 3.373-6.254 5.417-10.535 6.07-3.752.098-6.752-.22-9.902-2.32l-1 2-4.437.063-2.496.035C30 126 30 126 29 125a153.02 153.02 0 0 1-.062-6.562l.027-3.629L29 112c3.198-1.599 6.54-1.648 10-1 2.25 2.5 2.25 2.5 4 5h4l1-4-2.375-.625c-6.108-2.317-12.686-5.135-16.25-10.875-1.439-3.663-2.114-5.639-1.375-9.5 2.573-3.717 4.774-6.353 9-8 2.473-.195 2.473-.195 5.063-.125l2.598.055L47 83h3c1-1 1-1 4.375-1.125z" fill="#f6f6f6"/><path d="M395.824 83.902l2.61.004 8.253.031 5.596.014L426 84v18h-9v-8h-5v23h7v8h-26v-7h7V94h-6v8h-10V85c3.948-1.316 7.711-1.123 11.824-1.098z" fill="#f9f9f9"/><path d="M304 81h21v8h-5l1 25h6v9h-24v-9h5V89h-4v-8z" fill="#040300"/><path d="M135 84h1v5h5l.125 9.875.051 2.84.02 2.715.032 2.507C141 109 141 109 139 111c-5.248.558-5.248.558-7.673-1.241-1.683-2.231-1.676-3.436-1.62-6.208l.029-2.568.076-2.67.041-2.705L130 89h4l1-5z" fill="#f2bf00"/><path d="M493 94c3 3.625 3 3.625 3 7h-5l2-7z" fill="#e5b700"/><defs ><path id="B" d="M473.949 58.791l3.127-.058 14.224-.138 7.486-.103 10.811-.114 3.353-.084c7.515.02 12.523 1.456 18.049 6.705 3.473 4.837 3.792 10.192 4.387 15.973l.323 2.908.652 6.084 1.007 9.19c2.967 27.025 2.967 27.025-.057 33.408-7.756 8.175-7.756 8.175-13.049 8.718l-3.352.041-3.804.058-4.119.026-4.234.035-8.885.04-11.334.116-8.753.051-4.175.048c-7.56.133-13.224.12-19.08-5.015-5.514-6.067-5.791-10.747-5.527-18.68.236-3.68.581-7.343.953-11.012l.308-3.068.656-6.371.955-9.716.645-6.221.269-2.911c.698-6.347 1.884-11.961 7.067-16.226l1.773-.852c3.957-1.905 5.969-2.758 10.324-2.834z"/></defs></svg>