<?xml version="1.0" standalone="no"?>
<!DOCTYPE svg PUBLIC "-//W3C//DTD SVG 20010904//EN"
 "http://www.w3.org/TR/2001/REC-SVG-20010904/DTD/svg10.dtd">
<svg version="1.0" xmlns="http://www.w3.org/2000/svg"
 width="1920.000000pt" height="1081.000000pt" viewBox="0 0 1920.000000 1081.000000"
 preserveAspectRatio="xMidYMid meet">

<g transform="translate(0.000000,1081.000000) scale(0.100000,-0.100000)"
fill="#000000" stroke="none">
<path d="M0 5405 l0 -5405 9600 0 9600 0 0 5405 0 5405 -9600 0 -9600 0 0
-5405z m4621 2215 c96 -10 185 -25 299 -51 67 -16 264 -80 275 -90 5 -5 16 -9
25 -9 9 0 78 -31 154 -70 226 -115 392 -236 572 -416 96 -96 258 -298 300
-374 10 -19 22 -37 25 -40 3 -3 38 -70 77 -150 133 -272 197 -505 223 -808 24
-284 -23 -638 -120 -897 -16 -44 -35 -96 -42 -115 -29 -78 -136 -272 -211
-385 -45 -66 -84 -122 -87 -125 -3 -3 -33 -36 -67 -75 -97 -111 -204 -214
-284 -275 -18 -14 -39 -30 -46 -37 -33 -33 -242 -160 -349 -213 -211 -104
-438 -174 -683 -209 -94 -14 -464 -14 -567 0 -250 33 -463 98 -694 211 -101
49 -320 183 -341 208 -3 3 -25 21 -50 40 -25 19 -54 44 -66 55 -11 11 -36 34
-55 51 -127 116 -268 286 -366 443 -48 76 -136 248 -164 319 -71 179 -120 357
-145 528 -22 149 -22 481 0 624 47 302 142 570 287 808 22 35 39 68 39 72 0 5
4 10 8 12 5 2 23 26 42 53 190 281 524 566 831 708 140 65 164 75 269 110 273
91 610 127 911 97z m9106 -1035 c75 -50 107 -110 107 -194 -1 -126 -79 -219
-200 -237 -100 -15 -213 48 -249 138 -33 83 -17 192 37 251 49 52 107 77 183
77 64 0 75 -3 122 -35z m1053 -65 c29 -6 70 -15 92 -20 l38 -11 0 -154 c0 -85
-4 -156 -9 -159 -5 -3 -31 1 -57 9 -27 8 -81 18 -120 21 -91 8 -149 -15 -181
-74 -23 -41 -36 -121 -27 -158 l6 -24 296 -2 296 -3 43 -110 c24 -60 50 -128
58 -150 8 -22 23 -62 33 -90 175 -461 215 -567 229 -605 30 -82 48 -89 69 -24
11 36 60 177 211 604 30 85 60 174 67 196 7 23 26 74 41 113 l27 71 184 0
c158 0 185 -2 191 -16 3 -8 -6 -43 -20 -77 -29 -71 -147 -375 -251 -644 -80
-210 -159 -414 -190 -493 -19 -47 -60 -152 -91 -235 -77 -199 -127 -296 -194
-367 -88 -96 -192 -138 -341 -138 -101 0 -192 18 -281 55 -93 39 -94 41 -65
106 59 133 95 207 104 213 5 3 35 -6 66 -20 60 -28 147 -41 193 -29 34 8 121
97 129 132 4 13 2 34 -4 46 -11 23 -52 120 -149 357 -30 74 -61 149 -68 165
-7 17 -24 57 -38 90 -14 33 -66 158 -116 278 -50 121 -91 221 -91 224 0 3 -8
12 -17 19 -19 14 -231 20 -292 8 l-31 -6 -2 -587 -3 -586 -182 -3 c-143 -2
-183 0 -183 10 0 7 0 266 0 576 0 381 -3 570 -11 583 -9 18 -20 20 -82 19 -40
-1 -78 -1 -84 -1 -10 1 -13 40 -13 161 l0 160 83 0 c51 0 88 5 95 12 8 8 12
45 12 101 0 149 41 268 120 348 50 50 132 95 200 108 63 12 247 13 310 1z
m-6514 -84 c40 -8 100 -25 135 -37 154 -53 339 -166 339 -206 0 -19 -179 -267
-195 -271 -7 -2 -39 16 -71 38 -68 48 -169 97 -269 131 -97 32 -278 34 -345 3
-174 -80 -202 -263 -56 -360 64 -42 120 -62 349 -124 299 -80 414 -134 525
-248 85 -87 122 -193 122 -352 0 -123 -14 -181 -64 -277 -110 -209 -338 -323
-648 -323 -298 0 -558 93 -790 283 -51 42 -55 48 -35 69 6 7 28 33 48 58 20
25 47 56 59 70 12 14 38 44 57 68 20 23 43 42 52 42 9 0 32 -14 51 -31 19 -18
53 -43 75 -58 22 -14 42 -29 45 -32 10 -13 178 -88 235 -105 46 -14 94 -18
200 -18 156 0 197 11 269 74 51 45 66 79 66 150 0 145 -79 198 -440 291 -418
107 -573 217 -632 446 -16 63 -19 97 -15 178 9 159 53 262 161 371 97 97 214
155 374 184 68 13 315 4 398 -14z m4572 -270 c1 -117 7 -194 13 -203 8 -9 59
-13 198 -15 l186 -3 0 -159 0 -159 -177 2 c-113 1 -185 -2 -198 -9 -20 -10
-20 -18 -20 -368 0 -231 4 -371 11 -397 14 -51 57 -92 104 -101 50 -9 141 0
195 21 89 33 85 40 88 -131 l3 -151 -58 -26 c-81 -36 -126 -46 -223 -53 -211
-16 -368 54 -440 197 -44 86 -50 148 -50 585 0 346 -2 413 -14 423 -9 7 -41
12 -78 11 -35 -1 -71 -1 -81 -1 -16 1 -17 14 -15 159 l3 157 90 5 90 5 3 190
c1 105 4 196 7 203 3 10 46 12 182 10 l178 -3 3 -189z m-2879 -201 c207 -55
363 -175 454 -352 61 -119 87 -220 94 -370 6 -134 -5 -237 -39 -343 -18 -57
-63 -155 -78 -170 -3 -3 -9 -12 -15 -21 -83 -133 -235 -240 -399 -281 -141
-35 -312 -22 -430 31 -59 28 -163 101 -179 128 -4 7 -17 13 -27 13 -19 0 -20
-9 -20 -305 l0 -305 -182 2 -183 3 0 975 0 975 183 3 182 2 0 -90 c0 -65 3
-90 13 -90 6 0 35 22 62 48 83 78 141 112 250 143 76 22 239 24 314 4z m1706
-15 c44 -12 84 -25 90 -29 5 -4 26 -14 45 -21 19 -7 67 -36 107 -63 337 -230
434 -692 222 -1055 -44 -73 -188 -217 -261 -260 -140 -82 -278 -118 -453 -116
-416 4 -741 302 -780 715 -13 140 23 322 89 444 11 22 23 42 26 45 3 3 14 19
25 35 54 86 199 210 297 254 79 35 100 43 178 62 105 25 304 20 415 -11z
m5012 -22 c49 -23 99 -85 114 -142 12 -45 4 -138 -16 -176 -17 -33 -61 -73
-108 -99 -57 -32 -147 -29 -212 7 -63 34 -115 108 -114 161 l0 36 15 -49 c16
-49 85 -136 110 -136 7 0 14 -5 16 -12 3 -8 29 -12 79 -12 70 0 79 2 124 35
31 22 58 53 74 82 27 53 40 140 22 151 -6 4 -11 15 -11 24 0 24 -55 89 -101
118 -30 19 -53 24 -106 25 -50 1 -61 3 -43 9 35 11 107 1 157 -22z m-2892 0
c3 -13 4 -351 3 -753 l-3 -730 -185 0 -185 0 -3 730 c-1 402 0 740 3 753 5 22
7 22 185 22 178 0 180 0 185 -22z m2674 -15 c-45 -31 -78 -74 -98 -126 -15
-38 -20 -45 -20 -27 -1 41 41 112 88 147 24 19 46 31 49 28 3 -3 -5 -13 -19
-22z m185 -84 c35 -28 35 -73 0 -111 l-27 -27 27 -35 c31 -41 32 -46 7 -46
-10 0 -30 17 -45 39 -32 46 -43 51 -73 40 -18 -6 -23 -16 -23 -44 0 -24 -4
-35 -15 -35 -12 0 -15 19 -15 113 0 63 3 117 7 120 3 4 34 7 68 7 48 0 68 -5
89 -21z"/>
<path d="M3880 6484 c-25 -2 -103 -9 -175 -14 -280 -23 -641 -93 -714 -137
-78 -49 -111 -105 -111 -191 0 -100 66 -180 167 -203 43 -10 60 -9 139 14 128
36 256 61 444 87 122 17 578 24 750 11 282 -20 461 -52 780 -137 119 -31 346
-124 478 -195 120 -65 170 -72 245 -35 82 40 137 136 122 214 -8 43 -44 109
-74 134 -19 17 -158 98 -167 98 -2 0 -32 14 -66 31 -305 150 -717 255 -1193
304 -138 15 -537 27 -625 19z"/>
<path d="M3725 5719 c-201 -21 -396 -59 -567 -109 -21 -6 -51 -22 -67 -35 -30
-26 -71 -102 -71 -132 0 -43 23 -93 60 -131 56 -57 100 -63 228 -29 249 66
424 87 717 87 228 0 358 -11 555 -46 259 -46 536 -140 732 -246 51 -28 109
-59 128 -69 66 -36 159 -20 211 37 51 56 62 130 29 194 -23 45 -58 74 -155
126 -38 20 -77 41 -85 45 -38 22 -201 93 -264 116 -291 106 -550 164 -860 193
-127 12 -475 11 -591 -1z"/>
<path d="M3920 5014 c-134 -9 -310 -26 -360 -35 -218 -38 -339 -63 -362 -75
-32 -17 -73 -69 -82 -105 -13 -58 38 -139 100 -159 26 -9 57 -6 156 14 448 90
784 99 1168 30 194 -35 427 -120 612 -225 85 -47 95 -51 145 -47 46 4 58 10
87 41 50 54 54 111 15 176 -17 28 -92 74 -235 144 -308 153 -638 229 -1034
240 -85 3 -180 3 -210 1z"/>
<path d="M9625 5639 c-150 -50 -260 -169 -294 -320 -14 -58 -14 -204 0 -254
31 -120 116 -229 221 -286 61 -33 66 -34 178 -34 102 0 120 3 160 24 153 81
228 207 237 396 9 178 -50 320 -171 412 -81 62 -240 91 -331 62z"/>
<path d="M11335 5639 c-105 -24 -214 -108 -271 -209 -79 -139 -70 -376 19
-503 98 -142 268 -217 424 -188 190 35 320 172 354 372 53 320 -222 597 -526
528z"/>
<path d="M16521 5806 c-7 -8 -11 -27 -9 -43 2 -23 9 -29 38 -33 58 -9 98 18
83 56 -12 32 -91 46 -112 20z"/>
</g>
</svg>
