<?xml version="1.0" standalone="no"?>
<!DOCTYPE svg PUBLIC "-//W3C//DTD SVG 20010904//EN"
 "http://www.w3.org/TR/2001/REC-SVG-20010904/DTD/svg10.dtd">
<svg version="1.0" xmlns="http://www.w3.org/2000/svg"
 width="1707.000000pt" height="960.000000pt" viewBox="0 0 1707.000000 960.000000"
 preserveAspectRatio="xMidYMid meet">

<g transform="translate(0.000000,960.000000) scale(0.100000,-0.100000)"
fill="#000000" stroke="none">
<path d="M0 4800 l0 -4800 5411 0 c5150 0 5411 1 5404 17 -23 54 -34 91 -35
114 0 50 30 126 68 167 36 40 2452 1613 2571 1674 249 129 483 -197 279 -388
-36 -34 -2417 -1578 -2424 -1572 -2 2 541 357 1207 787 665 431 1219 796 1230
810 84 106 58 276 -53 344 -57 36 -144 46 -203 25 -22 -8 -615 -387 -1318
-843 -1455 -943 -1332 -850 -1332 -1000 0 -61 4 -88 18 -108 l17 -27 312 0
312 1 1141 739 c628 406 1153 744 1169 749 46 18 135 13 183 -10 56 -27 117
-98 133 -154 27 -97 -11 -206 -93 -264 -91 -65 -1620 -1051 -1624 -1048 -2 2
360 239 804 527 445 287 821 534 836 549 118 109 91 301 -52 373 -65 33 -136
37 -196 9 -33 -15 -2257 -1450 -2274 -1467 -3 -3 82 -4 189 -2 l195 3 26 30
c24 27 29 28 54 17 15 -7 29 -21 32 -32 3 -11 9 -20 14 -20 14 0 10 13 -11 40
-22 28 -26 50 -8 50 6 0 23 10 36 22 l24 23 34 -39 c38 -44 40 -51 19 -59 -9
-4 -21 5 -32 23 -9 17 -23 30 -30 30 -17 0 -16 -31 2 -56 8 -12 11 -24 8 -28
-3 -3 112 -6 256 -5 l261 0 743 481 c408 264 760 489 782 499 60 28 139 25
203 -7 150 -74 180 -277 60 -391 -18 -16 -224 -153 -457 -304 l-424 -274 1477
-3 1478 -2 85 56 c63 41 88 52 94 43 4 -8 1 -18 -8 -24 -14 -11 -14 -15 3 -43
l18 -32 167 0 c139 0 168 2 173 15 3 8 17 15 31 15 15 0 24 -4 20 -10 -4 -6
-10 -8 -14 -6 -4 3 -13 1 -21 -5 -11 -6 -3 -9 25 -9 41 0 41 0 37 35 -3 25 0
36 12 41 13 5 16 21 16 81 0 66 -2 74 -15 63 -9 -7 -17 -11 -19 -9 -1 2 -22
32 -44 66 -38 56 -40 63 -25 72 14 7 23 0 50 -40 19 -27 38 -49 43 -49 16 0
11 70 -7 101 -16 26 -16 30 -1 41 14 12 17 79 22 586 4 314 4 572 -1 572 -4 0
-37 -20 -72 -45 -36 -25 -69 -45 -75 -45 -6 0 -20 12 -32 27 l-21 27 -36 -23
c-41 -25 -44 -33 -22 -51 40 -33 -2 -71 -165 -149 -142 -68 -292 -97 -517
-100 -66 -1 -132 -4 -145 -6 -12 -2 -49 -6 -81 -10 -32 -3 -88 -15 -124 -26
-36 -11 -69 -17 -73 -12 -8 10 -90 244 -90 259 0 6 19 19 42 30 22 10 60 32
82 48 23 17 43 31 46 31 8 0 55 45 55 53 0 16 49 71 58 65 5 -3 7 0 5 8 -7 20
11 51 24 43 8 -5 9 -1 5 10 -5 11 -3 15 5 10 8 -5 9 -2 5 10 -5 11 -3 15 5 10
8 -5 9 -2 5 9 -3 10 -2 17 3 17 5 0 7 7 3 16 -4 12 -2 15 8 12 15 -5 32 -72
26 -105 -2 -12 0 -20 4 -17 5 3 9 -2 9 -11 0 -12 4 -13 18 -7 9 5 23 7 31 4 9
-3 11 0 6 8 -5 8 -4 11 2 7 6 -4 14 0 17 9 4 9 9 14 12 11 4 -3 14 2 23 11 9
10 12 12 7 5 -6 -10 -4 -12 8 -7 9 3 16 12 16 20 0 8 4 14 10 14 12 0 -22 -88
-61 -157 -16 -29 -29 -57 -29 -62 0 -10 90 -20 96 -10 2 3 45 9 96 12 66 4
120 15 183 37 50 17 95 31 102 32 8 1 6 9 -4 25 -15 22 -14 25 7 48 13 14 30
25 37 25 8 0 12 4 8 9 -6 10 51 58 63 54 4 -1 11 5 15 13 5 8 12 12 18 9 5 -4
9 -1 9 5 0 11 119 70 141 70 7 0 17 -8 24 -17 11 -15 15 -15 29 -4 9 7 16 10
16 6 0 -4 13 9 29 29 16 20 33 37 38 37 4 -1 8 4 8 10 0 6 9 17 19 25 11 8 17
14 13 14 -4 0 0 11 9 25 9 14 20 22 26 19 10 -7 -9 -39 -61 -102 -34 -41 -122
-118 -107 -94 4 7 1 12 -8 12 -12 0 -3 -24 34 -93 42 -78 49 -98 45 -135 -4
-41 -4 -42 18 -31 12 7 38 24 56 38 19 14 31 20 26 12 -5 -9 -4 -12 3 -7 8 5
11 72 11 217 0 157 -3 207 -12 202 -7 -4 -6 1 2 11 9 11 16 49 19 102 l5 84
-81 0 c-45 0 -84 4 -87 10 -5 9 89 63 100 58 2 -2 12 8 21 21 16 23 16 25 -1
37 -21 16 -30 48 -12 41 7 -3 11 -9 10 -15 -2 -7 4 -9 14 -5 10 4 14 2 9 -5
-3 -6 -3 -13 2 -16 4 -3 9 12 10 32 3 37 2 37 -37 37 -24 0 -37 -3 -33 -10 11
-17 11 -36 0 -33 -5 2 -9 8 -9 13 0 13 -30 45 -42 45 -5 0 1 -9 14 -20 13 -10
19 -19 13 -20 -11 0 -44 32 -44 42 0 4 33 5 73 5 l72 -2 3 3598 2 3597 -1650
0 -1650 0 25 -38 c22 -33 26 -53 30 -132 2 -51 9 -98 14 -103 6 -6 8 -2 5 14
-5 19 -4 21 5 9 6 -8 11 -23 11 -33 0 -10 9 -36 21 -58 11 -23 18 -44 15 -47
-3 -3 -6 1 -6 8 0 7 -2 11 -5 8 -9 -9 17 -60 52 -102 17 -21 35 -51 38 -67 4
-16 13 -36 21 -44 8 -8 31 -49 50 -92 20 -42 50 -98 68 -123 40 -54 55 -83 67
-123 13 -47 52 -104 -375 556 l-238 367 -913 0 c-794 0 -914 -2 -925 -15 -10
-12 -10 -15 3 -15 8 0 18 5 20 10 3 6 4 5 3 -2 -4 -23 -47 -22 -53 1 -3 11
-13 19 -23 18 -18 -1 -18 -2 1 -28 27 -38 24 -49 -6 -17 -14 15 -25 32 -25 38
0 6 -49 10 -140 10 -128 0 -160 -6 -130 -25 6 -3 10 -12 10 -18 0 -7 -10 0
-21 16 l-21 27 -614 -1 c-377 0 -614 -4 -614 -10 0 -17 -2 -23 -36 -98 -19
-40 -34 -84 -34 -96 0 -19 -4 -21 -26 -17 -18 3 -25 1 -20 -6 3 -6 -11 -28
-31 -49 -21 -21 -44 -50 -52 -65 -8 -15 -18 -25 -24 -21 -6 3 -6 8 0 12 6 3
13 34 16 68 4 54 3 63 -13 68 -22 7 -110 89 -110 103 0 5 -6 12 -14 15 -7 3
-23 26 -36 51 l-22 46 -870 0 c-827 0 -870 -1 -863 -17 138 -318 136 -634 -5
-938 -200 -434 -684 -694 -1152 -621 -494 78 -856 442 -937 941 -13 79 -5 295
13 370 25 102 42 158 65 207 11 26 21 49 21 52 0 4 -1348 6 -2995 6 l-2995 0
0 -4800z m10393 4777 c-4 -6 0 -8 9 -4 11 4 18 -1 21 -14 3 -11 19 -25 36 -32
l30 -11 -26 -24 c-24 -22 -28 -23 -61 -10 -20 7 -38 23 -43 37 -7 18 -6 22 6
18 8 -4 17 -1 21 6 4 7 4 9 -1 5 -13 -13 -37 13 -25 27 12 14 42 16 33 2z
m944 -19 c-3 -7 -5 -2 -5 12 0 14 2 19 5 13 2 -7 2 -19 0 -25z m81 -3 c-3 -3
-9 2 -12 12 -6 14 -5 15 5 6 7 -7 10 -15 7 -18z m-1761 -7 c-3 -8 -6 -5 -6 6
-1 11 2 17 5 13 3 -3 4 -12 1 -19z m1653 7 c7 -8 19 -15 26 -15 8 0 14 -4 14
-10 0 -5 -4 -10 -9 -10 -14 0 -68 49 -55 50 6 0 17 -7 24 -15z m-1071 -34 l40
-40 -27 -29 c-27 -29 -112 -79 -112 -65 0 3 -11 -4 -25 -17 -22 -21 -25 -21
-31 -6 -7 17 4 44 47 116 19 32 58 80 65 80 2 0 21 -18 43 -39z m3472 -376
c317 -491 372 -578 356 -569 -22 12 -57 47 -57 56 0 5 -6 15 -12 23 -7 7 -49
51 -93 96 -45 46 -121 129 -170 183 -99 109 -298 276 -330 276 -7 0 -20 9 -30
20 -10 11 -23 20 -29 20 -6 0 -29 10 -51 21 -21 12 -62 29 -90 38 -27 9 -59
22 -70 28 -20 12 -20 12 5 30 13 10 85 57 159 105 107 69 138 85 147 75 7 -6
126 -187 265 -402z m-2465 373 c-1 -14 6 -24 17 -26 20 -4 25 33 5 41 -8 3 -6
6 5 6 13 1 17 -7 17 -30 0 -27 -3 -30 -27 -27 -22 2 -29 9 -31 31 -2 15 1 27
6 27 5 0 8 -10 8 -22z m-26 -59 c0 -19 -26 -33 -35 -19 -4 6 1 10 9 10 20 0
20 11 1 36 -8 10 -14 24 -14 29 -1 6 8 -1 19 -15 11 -14 20 -32 20 -41z m-540
1 c0 -5 -5 -10 -11 -10 -5 0 -7 5 -4 10 3 6 8 10 11 10 2 0 4 -4 4 -10z m450
-24 c0 -2 3 -13 6 -23 5 -17 5 -17 -10 1 -9 11 -22 16 -32 12 -15 -6 -15 -8 0
-31 9 -14 12 -25 7 -25 -5 0 -16 11 -24 24 -12 17 -13 26 -4 35 10 10 57 16
57 7z m255 -74 c-6 -7 -34 29 -34 43 0 6 9 -1 20 -14 11 -13 17 -26 14 -29z
m-321 16 c8 -14 7 -21 -6 -34 -30 -30 -75 9 -48 42 16 18 39 15 54 -8z m-84
-23 c0 -8 5 -15 10 -15 18 0 11 -39 -9 -50 -16 -8 -23 -5 -40 19 -24 33 -26
47 -8 54 25 11 47 7 47 -8z m358 8 c-20 -5 -25 -23 -6 -23 6 0 9 -3 5 -6 -3
-4 -13 -4 -21 -1 -22 9 -8 37 18 36 16 -1 17 -2 4 -6z m-28 -77 c0 -12 -14 5
-31 39 -8 16 -6 15 10 -4 12 -13 21 -28 21 -35z m60 46 c0 -10 -22 -32 -32
-32 -4 0 -8 5 -8 10 0 6 6 9 13 8 6 -2 11 3 10 10 -2 6 2 12 7 12 6 0 10 -4
10 -8z m-97 -40 c16 -28 16 -29 -8 -42 -13 -7 -31 -10 -39 -7 -21 8 -20 54 2
66 24 15 26 14 45 -17z m-415 -19 c-26 -7 -22 -23 5 -20 14 1 22 -3 22 -13 0
-8 -8 -15 -18 -16 -12 -1 -13 -1 -2 3 22 7 9 22 -14 16 -20 -5 -36 11 -26 27
3 6 16 9 28 9 17 -1 18 -2 5 -6z m336 -19 c9 -8 16 -21 16 -27 0 -7 -9 -1 -19
12 -12 15 -23 21 -31 16 -9 -5 -11 -4 -6 3 10 16 22 15 40 -4z m-276 -19 c-3
-3 -9 2 -12 12 -6 14 -5 15 5 6 7 -7 10 -15 7 -18z m-803 -15 c-4 -12 -9 -19
-12 -17 -3 3 -2 15 2 27 4 12 9 19 12 17 3 -3 2 -15 -2 -27z m705 11 c0 -6 -9
-16 -20 -24 -11 -8 -17 -17 -13 -20 3 -4 1 -7 -6 -7 -15 0 -25 25 -17 45 6 16
56 21 56 6z m340 -10 c16 -32 11 -38 -10 -11 -14 19 -22 22 -30 14 -9 -9 -9
-17 0 -34 17 -31 6 -35 -14 -5 -14 21 -14 28 -4 40 18 20 45 18 58 -4z m-335
-30 c-3 -6 -11 -11 -17 -11 -6 0 -6 6 2 15 14 17 26 13 15 -4z m-94 0 c-7 -5
-10 -14 -7 -20 4 -6 0 -11 -8 -11 -11 0 -16 -9 -16 -30 0 -16 -4 -30 -8 -30
-5 0 -8 10 -8 22 1 14 -6 24 -16 26 -20 4 -26 -32 -8 -41 6 -3 5 -4 -2 -3 -7
2 -13 14 -13 27 0 19 6 25 26 27 17 2 29 11 32 23 3 10 13 19 24 19 14 0 15
-2 4 -9z m32 -17 c12 -12 -6 -34 -27 -33 -18 1 -18 2 -3 6 11 3 16 11 13 19
-5 14 5 19 17 8z m292 -13 c0 -8 -6 -16 -13 -19 -7 -2 -10 2 -6 12 3 9 2 16
-4 16 -17 0 -20 -24 -5 -38 11 -12 16 -12 30 0 14 11 16 11 11 -2 -6 -20 -48
-19 -61 2 -8 12 -7 21 3 33 15 19 45 16 45 -4z m-440 -54 c0 -10 7 -22 15 -28
11 -7 8 -8 -12 -3 -24 5 -26 3 -22 -18 4 -16 -2 -12 -20 17 -19 29 -22 41 -13
47 20 14 52 4 52 -15z m355 -8 c13 -24 -2 -49 -31 -49 -22 0 -35 36 -19 55 17
21 37 19 50 -6z m2163 10 c23 -6 72 -40 130 -91 50 -45 93 -84 95 -88 1 -4 -8
-11 -20 -17 -24 -12 -58 -36 -89 -65 -11 -11 -17 -27 -15 -40 3 -13 5 -29 5
-35 2 -23 21 -14 88 42 37 30 75 55 84 55 10 0 21 -12 28 -30 8 -23 7 -30 -3
-30 -7 0 -28 -14 -46 -30 -19 -17 -40 -28 -46 -26 -17 6 -38 -20 -28 -35 4 -7
3 -9 -3 -6 -7 4 -10 -3 -9 -18 1 -26 5 -29 30 -19 8 3 12 12 9 20 -6 17 -3 17
31 4 18 -7 26 -6 26 1 0 8 5 7 15 -1 10 -8 15 -9 15 -2 0 6 12 11 28 11 15 -1
45 2 67 6 39 7 43 5 77 -33 39 -43 50 -38 37 18 -8 33 -1 58 8 32 4 -10 8 -10
19 -1 11 9 16 7 22 -11 7 -20 10 -21 15 -7 8 20 21 22 39 4 7 -8 26 -17 41
-21 27 -6 76 -51 77 -70 0 -5 12 -19 26 -32 14 -13 22 -28 19 -34 -3 -5 1 -23
10 -39 8 -17 15 -46 15 -66 0 -19 5 -35 11 -35 6 0 8 -7 5 -16 -5 -12 -1 -14
17 -9 22 6 22 6 2 -10 -13 -11 -30 -14 -50 -10 l-29 5 29 -31 c28 -29 28 -31
8 -25 -23 7 -32 -7 -13 -19 6 -3 10 -16 10 -28 0 -21 0 -21 -16 2 -13 18 -18
20 -25 10 -5 -8 -6 -21 -3 -31 14 -46 -69 -29 -101 21 -13 20 -40 53 -59 74
-36 39 -46 54 -24 41 7 -5 8 -3 3 5 -4 7 -18 11 -30 9 -21 -4 -23 -2 -20 36 3
35 2 38 -8 21 -15 -27 -17 -43 -8 -68 6 -17 -1 -30 -38 -67 -47 -45 -131 -190
-112 -190 6 0 11 6 11 13 0 7 13 28 30 47 24 28 31 32 39 21 8 -12 12 -12 25
-2 13 11 17 10 22 -4 4 -10 1 -21 -7 -26 -10 -6 -10 -9 -2 -9 7 0 10 -7 6 -17
-7 -23 -124 -133 -140 -133 -6 0 -13 12 -15 28 -3 21 -6 17 -12 -21 -5 -26 -6
-50 -4 -53 11 -10 77 22 129 63 69 54 94 103 86 167 -8 54 -1 76 22 76 45 0
65 -213 29 -301 -15 -34 -66 -82 -117 -109 -13 -6 -56 -13 -95 -14 l-71 -1 3
-34 c2 -18 10 -51 17 -72 13 -36 13 -40 -6 -49 -22 -13 -32 5 -43 80 -10 63
-16 81 -25 75 -15 -9 -124 25 -176 55 -28 16 -65 46 -81 67 -41 51 -144 259
-150 303 -12 84 -8 105 21 118 14 6 25 17 25 24 0 7 9 24 20 38 11 14 20 35
20 48 0 18 5 22 34 22 44 0 53 14 20 29 -32 14 -57 14 -48 0 4 -7 0 -9 -14 -5
-15 5 -24 1 -32 -14 -7 -13 -18 -19 -26 -16 -8 3 -14 2 -14 -3 0 -16 -52 -23
-61 -9 -19 29 -8 47 39 68 114 53 137 67 137 83 0 9 -2 16 -5 15 -3 -1 -15 4
-27 10 -18 10 -32 6 -97 -28 -41 -22 -79 -40 -83 -40 -10 0 -44 131 -50 191
-7 67 24 123 115 211 43 41 84 77 92 81 24 9 72 8 113 -4z m-2245 -36 c0 -10
3 -27 7 -38 6 -17 3 -16 -13 4 -15 19 -17 27 -8 37 14 17 15 17 14 -3z m-384
-44 c21 -35 16 -45 -12 -30 -35 19 -46 13 -28 -14 9 -14 13 -25 9 -25 -5 0
-19 17 -31 36 l-24 37 24 -5 c12 -3 32 -9 43 -14 19 -8 20 -7 2 19 -9 15 -14
27 -9 27 4 0 16 -14 26 -31z m356 6 c18 -22 8 -50 -19 -50 -32 0 -49 28 -32
49 17 20 35 20 51 1z m-60 -56 c7 -11 9 -23 7 -26 -3 -2 -10 5 -17 16 -11 22
-40 29 -40 10 0 -6 5 -19 10 -30 14 -26 -2 -24 -18 2 -10 16 -16 18 -27 9 -12
-10 -12 -15 2 -36 8 -13 11 -24 6 -24 -5 0 -16 11 -23 25 -11 20 -11 27 0 40
7 8 19 15 26 15 8 0 14 5 14 10 0 19 49 10 60 -11z m-410 -10 c0 -5 -4 -8 -9
-4 -5 3 -12 1 -16 -5 -4 -6 6 -10 24 -10 17 0 31 -2 31 -4 0 -19 -16 -36 -34
-35 -20 0 -19 1 4 12 l25 11 -32 4 c-35 4 -40 11 -21 30 15 15 28 15 28 1z
m1548 -31 c16 -16 -3 -38 -34 -38 -13 0 -24 -5 -24 -10 0 -7 18 -8 49 -4 43 6
50 4 60 -14 16 -30 14 -40 -15 -67 -28 -26 -68 -32 -94 -15 -13 9 -13 11 0 20
8 5 25 10 37 10 22 0 40 16 30 27 -3 3 -22 0 -42 -7 -31 -10 -39 -10 -56 6
-27 24 -24 48 12 78 33 28 58 33 77 14z m-1596 -15 c10 -9 18 -21 18 -27 0 -6
-9 0 -20 14 -14 19 -22 22 -30 14 -9 -9 -9 -17 0 -34 17 -32 6 -35 -14 -4 -17
24 -17 26 1 40 23 17 23 17 45 -3z m2143 0 c-10 -26 -35 -139 -46 -213 -12
-79 -4 -279 11 -294 8 -8 9 -6 4 8 -5 13 -4 17 3 13 6 -4 13 -19 15 -34 3 -16
13 -45 22 -66 9 -22 12 -36 6 -32 -17 11 12 -47 41 -81 15 -18 34 -53 44 -78
10 -25 21 -46 25 -46 7 0 60 -110 60 -124 0 -4 25 -45 56 -92 30 -46 60 -98
64 -116 5 -17 8 -29 5 -27 -9 9 -67 97 -265 404 -114 176 -246 379 -293 452
l-86 132 162 105 c89 58 166 106 171 106 4 0 5 -8 1 -17z m-1869 -35 c-1 -14
6 -24 17 -26 20 -4 25 33 5 41 -8 3 -6 6 5 6 13 1 17 -7 17 -30 0 -27 -3 -30
-27 -27 -22 2 -29 9 -31 31 -2 15 1 27 6 27 5 0 8 -10 8 -22z m-337 -15 c11
-23 10 -29 -5 -40 -24 -18 -30 -17 -48 9 -22 30 -11 36 13 7 17 -21 20 -22 26
-7 4 9 2 26 -5 37 -6 12 -7 21 -2 21 5 0 14 -12 21 -27z m1561 -58 c42 -65 44
-83 9 -88 -8 -2 -25 -13 -37 -25 -32 -32 -74 -29 -106 9 -15 18 -26 43 -26 60
0 32 31 69 58 69 9 0 23 9 30 20 7 11 16 20 21 20 5 0 28 -29 51 -65z m-1250
36 c16 -31 12 -35 -9 -10 -15 18 -22 21 -31 13 -9 -9 -9 -17 -1 -32 18 -34 12
-39 -8 -8 -15 22 -17 32 -8 42 17 19 45 17 57 -5z m-420 -4 c-32 -16 -37 -43
-11 -56 15 -8 23 -7 35 5 9 8 16 11 16 5 0 -19 -38 -33 -60 -21 -38 20 -19 80
25 80 18 0 17 -2 -5 -13z m40 -16 c0 -5 -9 -11 -21 -14 -16 -4 -18 -3 -8 9 13
16 29 19 29 5z m1407 -17 c3 -8 -2 -23 -11 -32 -15 -15 -17 -15 -33 0 -13 14
-14 20 -3 32 16 20 39 20 47 0z m-1165 -11 c16 10 22 8 39 -12 11 -13 17 -26
15 -29 -3 -3 -14 6 -25 19 -15 18 -22 21 -31 13 -9 -9 -8 -18 5 -38 10 -14 13
-26 8 -26 -5 0 -20 19 -33 43 -12 23 -17 37 -10 30 10 -9 17 -9 32 0z m-44
-37 c-2 -18 13 -46 23 -40 5 3 9 0 9 -5 0 -18 -21 -12 -41 12 -22 27 -24 44
-4 44 8 0 14 -5 13 -11z m1274 -54 c43 -65 45 -69 27 -80 -10 -7 -21 -12 -23
-12 -2 0 -23 30 -47 66 -41 64 -42 67 -24 80 10 8 20 14 20 14 1 0 22 -31 47
-68z m-1291 -4 c5 -10 6 -18 1 -18 -5 0 -14 11 -20 25 -22 49 -11 44 19 -7z
m-37 -3 c15 -23 15 -27 2 -40 -8 -8 -24 -15 -35 -15 -24 0 -38 37 -21 54 9 8
11 7 10 -4 -4 -29 0 -40 14 -40 21 0 30 20 17 33 -10 10 -16 37 -7 37 2 0 11
-11 20 -25z m1241 1 c18 -13 18 -14 -3 -25 -11 -6 -27 -11 -36 -11 -21 0 -29
-17 -22 -46 5 -17 13 -24 31 -24 15 0 25 6 25 14 0 7 11 21 25 30 l25 16 0
-34 c0 -25 -7 -40 -26 -55 -49 -38 -106 -23 -130 34 -17 42 -4 79 35 100 33
18 53 18 76 1z m-1345 -21 c-11 -14 -5 -39 8 -31 4 2 8 -7 8 -20 2 -31 0 -30
-27 7 -22 31 -22 32 -4 45 24 18 31 18 15 -1z m1955 -337 c362 -586 372 -603
356 -622 -18 -21 -103 5 -148 44 -22 20 -43 30 -54 27 -11 -3 -17 -2 -14 3 6
10 -26 19 -97 26 -47 5 -65 2 -113 -20 -68 -31 -83 -32 -93 -8 -4 9 -29 51
-56 92 -27 41 -58 90 -70 109 -31 49 -250 211 -316 234 -79 27 -181 16 -227
-26 -12 -10 -27 -17 -34 -15 -11 4 665 448 680 448 3 -1 87 -132 186 -292z
m-748 260 c48 -55 65 -88 53 -103 -20 -24 -33 -18 -58 25 -17 30 -29 40 -47
40 -33 0 -33 -29 0 -78 23 -34 24 -38 8 -49 -9 -7 -20 -13 -23 -13 -6 0 -77
107 -88 131 -2 4 7 11 20 15 13 3 36 17 51 30 36 30 58 30 84 2z m-217 -53
c11 -13 8 -15 -13 -15 -17 0 -31 -8 -38 -21 -17 -32 -36 -8 -21 26 13 29 52
34 72 10z m70 -51 l31 -27 -45 -30 c-25 -16 -46 -33 -46 -38 0 -18 22 -8 52
21 50 51 69 13 20 -42 -22 -23 -37 -31 -62 -31 -68 0 -107 95 -57 140 43 40
66 41 107 7z m-144 -95 c54 -86 56 -92 38 -102 -10 -7 -21 -12 -24 -12 -3 0
-16 -10 -30 -22 -32 -31 -66 -29 -101 6 -47 47 -30 129 28 134 20 1 21 2 6 31
-14 27 -14 31 3 43 10 7 19 13 20 13 1 0 28 -41 60 -91z m2950 45 c18 -14 18
-14 -6 -3 -31 14 -36 19 -24 19 6 0 19 -7 30 -16z m-1898 -63 c33 -58 21 -51
-17 11 -18 28 -26 47 -19 40 8 -6 24 -29 36 -51z m209 -323 c218 -338 219
-340 198 -332 -21 8 -46 47 -215 324 -79 129 -150 246 -159 260 -9 13 -11 21
-5 17 7 -4 88 -125 181 -269z m-1402 215 c39 -55 42 -68 17 -82 -15 -8 -23 -2
-46 35 -21 34 -34 44 -50 42 -30 -4 -31 -32 -2 -75 31 -45 31 -49 7 -62 -16
-9 -25 -1 -64 58 -43 65 -44 68 -25 80 11 7 22 10 25 7 3 -3 14 6 25 19 33 42
71 34 113 -22z m3611 -30 c-7 -7 -26 7 -26 19 0 6 6 6 15 -2 9 -7 13 -15 11
-17z m-66 -18 c-14 -16 -10 -18 14 -9 9 3 13 10 10 15 -3 5 0 9 5 9 18 0 13
-18 -9 -33 -11 -8 -17 -17 -13 -20 3 -4 1 -7 -5 -7 -13 0 -26 36 -17 50 3 5
11 10 17 10 7 0 6 -6 -2 -15z m-3710 -30 c13 -14 22 -26 19 -28 -2 -2 -23 -15
-46 -30 -50 -32 -52 -37 -18 -37 15 0 25 6 25 15 0 12 28 35 44 35 3 0 6 -11
6 -24 0 -30 -52 -76 -87 -76 -33 0 -83 51 -83 85 0 16 12 38 29 56 37 37 79
38 111 4z m3665 -25 c4 -13 12 -17 23 -13 14 5 15 4 4 -8 -11 -12 -17 -9 -38
16 -13 17 -24 34 -24 39 0 14 29 -14 35 -34z m90 21 c-3 -6 -11 -11 -17 -11
-6 0 -6 6 2 15 14 17 26 13 15 -4z m-3935 -23 c0 -6 -7 -20 -16 -30 -16 -17
-14 -22 24 -80 31 -46 38 -65 30 -75 -19 -23 -32 -14 -76 52 -42 65 -42 65
-67 49 -14 -9 -25 -14 -25 -11 0 3 -3 12 -6 20 -4 11 13 28 57 56 61 38 79 42
79 19z m582 -44 c-24 -26 -50 -62 -58 -80 -16 -37 -18 -154 -4 -224 12 -61 65
-253 88 -318 19 -51 50 -97 60 -87 3 3 -5 16 -18 30 -13 14 -20 28 -17 31 13
14 75 -66 103 -133 16 -37 32 -70 36 -71 5 -2 6 -8 2 -13 -3 -5 -2 -8 3 -7 4
1 28 -18 51 -42 24 -25 49 -45 54 -45 12 0 17 -9 43 -72 10 -24 26 -45 35 -48
10 -3 21 -16 24 -28 5 -17 8 -19 15 -8 9 14 12 5 27 -84 10 -57 52 -147 78
-167 l23 -17 -13 37 c-16 44 -18 90 -4 76 5 -5 14 -27 19 -49 5 -24 9 -31 10
-17 1 32 15 27 34 -13 35 -73 29 -82 -110 -170 -69 -44 -130 -81 -137 -83 -8
-2 -830 1252 -844 1288 -2 4 59 48 134 96 75 49 196 128 268 176 72 47 134 87
137 87 3 1 -14 -20 -39 -45z m3486 -64 c-5 -25 -44 -24 -62 1 -21 31 -11 37
13 8 16 -19 22 -22 32 -11 10 9 10 15 1 24 -7 7 -12 17 -12 23 0 5 7 1 16 -10
8 -11 13 -26 12 -35z m-128 0 c-12 -7 -12 -12 0 -34 7 -14 19 -26 26 -26 20 0
25 32 8 51 -10 11 -12 19 -7 19 16 0 35 -27 31 -46 -2 -9 -13 -23 -24 -31 -20
-13 -23 -11 -44 23 -19 30 -20 38 -9 45 8 5 19 9 24 9 6 0 3 -4 -5 -10z
m-3215 -40 c3 -5 11 -10 16 -10 6 0 8 4 5 8 -2 4 15 5 39 2 32 -4 55 -16 91
-48 l48 -42 -48 -44 c-48 -43 -48 -43 -37 -79 7 -20 17 -39 22 -42 5 -4 9 -17
9 -30 0 -13 5 -27 10 -30 6 -3 10 -16 10 -28 0 -29 19 -57 27 -39 2 6 8 10 13
7 4 -3 13 2 20 10 11 13 6 23 -32 60 -45 44 -57 75 -30 75 11 0 12 3 4 13 -8
10 -5 13 14 15 25 2 33 -12 12 -22 -7 -3 1 -3 17 0 17 3 42 19 56 35 34 39 49
23 49 -56 0 -34 7 -83 16 -108 16 -47 13 -97 -6 -97 -9 0 -15 22 -11 43 3 17
-28 17 -56 0 -87 -53 -118 -77 -101 -81 9 -2 30 6 45 17 39 27 73 36 73 19 0
-23 -29 -56 -53 -61 -19 -4 -19 -4 5 -6 15 0 39 9 55 22 15 13 36 27 47 30 17
7 18 4 13 -30 -7 -40 -42 -77 -83 -87 -13 -4 -49 3 -81 15 -44 16 -72 36 -115
81 -32 33 -62 76 -68 94 -7 19 -16 34 -21 34 -5 0 -9 7 -9 16 0 8 4 13 8 10
14 -8 73 26 68 40 -3 8 2 17 10 22 14 8 14 12 3 31 -11 18 -21 22 -49 18 -19
-3 -42 -8 -51 -12 -14 -5 -20 6 -35 68 -17 74 -17 74 6 122 15 30 25 43 30 35
4 -7 13 -9 19 -6 6 4 9 12 6 17 -4 5 -2 9 4 9 5 0 13 -4 16 -10z m5 -311 c0
-5 -4 -9 -10 -9 -5 0 -10 7 -10 16 0 8 5 12 10 9 6 -3 10 -10 10 -16z m200
-27 c0 -13 -12 -22 -22 -16 -10 6 -1 24 13 24 5 0 9 -4 9 -8z m430 -47 c14
-16 10 -18 -14 -9 -9 3 -16 10 -16 15 0 14 16 11 30 -6z m-166 -54 c4 -30 1
-48 -9 -58 -16 -15 -20 -53 -7 -53 5 0 8 8 8 18 -1 9 4 17 9 17 6 0 10 -10 9
-22 0 -12 3 -20 7 -17 4 2 10 -5 14 -16 3 -11 13 -20 20 -20 19 0 25 -13 14
-30 -8 -13 -10 -13 -20 0 -8 12 -10 10 -5 -10 3 -14 6 -34 6 -44 0 -11 3 -17
6 -13 9 9 34 -19 34 -37 0 -10 -6 -13 -17 -10 -13 4 -14 3 -5 -3 14 -11 7 -39
-12 -46 -24 -10 -73 20 -80 49 -4 15 -18 41 -32 58 -13 17 -28 36 -32 41 -5 6
-19 18 -33 28 l-24 18 24 -7 c16 -4 21 -3 16 6 -4 6 0 19 9 29 9 10 27 50 40
89 14 40 28 77 32 83 11 18 22 -3 28 -50z m170 10 c3 -4 -6 -6 -19 -3 -14 2
-25 6 -25 8 0 8 39 4 44 -5z m1591 -25 c21 -40 15 -66 -17 -65 l-23 0 23 9
c34 14 26 29 -12 23 -25 -4 -35 -1 -39 11 -8 20 1 46 16 46 8 0 8 -3 0 -11
-16 -16 -5 -39 18 -39 20 0 26 24 9 35 -12 8 -13 25 -2 25 5 0 17 -15 27 -34z
m-75 -35 c16 -32 11 -38 -10 -11 -14 19 -22 22 -30 14 -9 -9 -9 -17 0 -34 17
-32 6 -35 -14 -5 -14 21 -15 29 -5 41 16 20 46 17 59 -5z m-1653 -33 c-3 -8
-6 -5 -6 6 -1 11 2 17 5 13 3 -3 4 -12 1 -19z m1579 -5 c16 -21 18 -37 4 -28
-13 8 -33 45 -24 45 4 0 13 -8 20 -17z m-1421 -3 c3 -6 -1 -7 -9 -4 -18 7 -21
14 -7 14 6 0 13 -4 16 -10z m1378 -6 c-2 -7 6 -19 19 -28 16 -11 18 -16 7 -16
-9 0 -23 8 -31 18 -27 31 -29 41 -9 39 10 0 17 -6 14 -13z m-20 -42 c16 -28
16 -29 -8 -42 -13 -7 -31 -10 -39 -7 -21 8 -20 54 2 66 24 15 26 14 45 -17z
m-89 -24 c-8 -13 16 -49 29 -42 9 5 9 4 0 -6 -10 -11 -17 -9 -35 12 -30 33
-32 47 -8 45 10 -1 16 -5 14 -9z m339 -36 c16 -28 16 -29 -8 -42 -13 -7 -31
-10 -39 -7 -21 8 -20 54 2 66 24 15 26 14 45 -17z m-353 -36 c0 -6 -9 0 -20
14 -26 33 -25 52 0 21 11 -13 20 -28 20 -35z m-1280 40 c0 -3 -4 -8 -10 -11
-5 -3 -10 -1 -10 4 0 6 5 11 10 11 6 0 10 -2 10 -4z m89 -39 c1 -5 -3 -5 -9
-2 -5 3 -10 16 -9 28 0 21 1 21 9 2 5 -11 9 -24 9 -28z m1148 -34 c-9 -8 -57
25 -57 39 0 6 12 1 26 -13 l26 -24 -5 35 -6 35 11 -33 c6 -18 8 -35 5 -39z
m317 31 c22 -21 20 -45 -4 -51 -16 -4 -18 -9 -9 -24 19 -37 -8 -18 -29 19 -20
36 -20 40 -4 55 20 21 26 21 46 1z m-374 -23 c0 -6 -9 -16 -20 -24 -11 -8 -17
-17 -13 -20 3 -4 1 -7 -6 -7 -15 0 -25 25 -17 45 6 16 56 21 56 6z m320 -56
c0 -5 -9 1 -20 15 -11 14 -20 30 -20 35 0 6 9 -1 20 -15 11 -14 20 -29 20 -35z
m-400 -19 c0 -4 7 -5 16 -2 8 3 12 2 9 -4 -11 -18 -32 -10 -46 18 -22 44 -22
49 0 22 11 -14 21 -29 21 -34z m85 35 c-3 -6 -11 -11 -17 -11 -6 0 -6 6 2 15
14 17 26 13 15 -4z m249 -12 c14 -24 20 -28 32 -18 8 7 14 7 14 1 0 -5 -8 -13
-17 -16 -17 -7 -32 6 -54 47 -17 30 6 18 25 -14z m-1118 -10 c10 -17 -23 -46
-37 -32 -7 7 -9 19 -6 27 7 18 33 21 43 5z m1084 -60 c0 -3 -11 -12 -25 -19
-20 -11 -27 -11 -40 0 -22 18 -18 45 8 57 18 9 25 7 39 -11 10 -11 18 -24 18
-27z m-1046 -19 c-7 -6 -24 22 -23 40 0 9 6 5 14 -10 7 -14 11 -27 9 -30z
m-114 9 c0 -7 10 -9 24 -7 18 4 28 -2 42 -26 10 -17 18 -34 16 -38 -4 -14 15
-9 28 7 18 22 23 19 44 -20 19 -35 19 -36 0 -50 -26 -20 -32 -19 -36 8 -4 21
-5 20 -18 -8 -8 -16 -15 -32 -17 -34 -2 -2 -14 2 -28 9 -14 7 -28 10 -32 5 -5
-4 -2 -10 5 -12 24 -9 12 -43 -25 -68 -21 -14 -40 -25 -43 -25 -3 0 -6 23 -7
52 -1 35 -6 54 -17 60 -11 6 -14 17 -10 33 3 13 1 33 -6 44 -12 23 -2 28 20 9
8 -8 7 -3 -3 14 -20 33 -21 42 -4 35 7 -3 21 1 32 9 23 17 35 18 35 3z m87 -6
c4 -10 11 -21 17 -25 6 -4 7 -10 3 -14 -6 -7 -46 34 -47 49 0 14 21 7 27 -10z
m991 -41 c-16 -19 -48 -11 -66 18 l-16 25 26 -24 c30 -26 54 -21 38 9 -16 31
-11 37 10 10 14 -18 16 -28 8 -38z m-80 6 c17 -17 15 -38 -5 -60 -22 -25 -28
-23 -54 18 -18 30 -19 38 -8 45 20 12 53 11 67 -3z m-1137 -30 c11 -21 11 -22
-4 -9 -10 7 -17 17 -17 22 0 15 9 10 21 -13z m-61 -67 c0 -6 -13 -18 -30 -27
-34 -21 -46 -42 -22 -40 9 0 16 -5 14 -12 -3 -15 27 -76 34 -69 3 2 0 16 -5
30 -7 18 -6 30 4 43 14 18 14 18 15 -3 0 -12 4 -24 9 -28 15 -8 25 15 12 28
-6 6 -11 16 -11 22 1 12 40 -33 40 -47 0 -5 -4 -6 -10 -3 -17 11 -11 -11 11
-40 18 -22 20 -29 8 -36 -10 -6 -15 -3 -17 13 -2 12 -10 27 -17 34 -11 11 -14
10 -18 -6 -4 -14 -12 -19 -29 -18 -17 2 -24 -3 -26 -18 -7 -46 -62 -69 -62
-26 1 15 2 15 15 -2 9 -11 15 -14 15 -7 0 17 -26 42 -35 33 -4 -4 -5 -2 -4 3
1 6 -3 29 -10 53 -16 55 3 92 47 92 16 0 37 9 48 19 22 23 24 24 24 12z m137
-43 c-3 -8 -6 -5 -6 6 -1 11 2 17 5 13 3 -3 4 -12 1 -19z m2900 -113 l32 -54
-98 -65 c-54 -35 -109 -67 -122 -71 -30 -10 -78 -12 -73 -4 2 4 -14 9 -35 13
-78 12 -71 28 49 106 61 40 129 85 153 101 23 15 47 28 52 28 6 0 24 -24 42
-54z m-3373 -20 c5 -19 4 -26 -2 -20 -5 6 -13 24 -16 40 -5 19 -4 26 2 20 5
-5 13 -23 16 -40z m13 13 c-3 -8 -6 -5 -6 6 -1 11 2 17 5 13 3 -3 4 -12 1 -19z
m356 -21 c-4 -20 -8 -25 -14 -16 -4 7 -3 21 3 32 13 25 17 18 11 -16z m250
-108 c15 -24 1 -49 -27 -49 -29 0 -44 33 -25 56 15 18 38 15 52 -7z m-53 -74
c0 -5 -9 1 -20 15 -11 14 -20 30 -20 35 0 6 9 -1 20 -15 11 -14 20 -29 20 -35z
m-60 24 c0 -12 8 -28 18 -36 15 -13 15 -13 -5 -4 -31 15 -35 14 -28 -9 9 -29
0 -24 -23 12 -15 24 -18 36 -10 45 17 21 48 16 48 -8z m2915 -33 c79 -33 98
-138 37 -199 -26 -26 -39 -31 -82 -31 -47 -1 -54 2 -86 36 -28 31 -34 45 -34
83 0 67 47 116 118 124 7 0 28 -5 47 -13z m-2989 -43 c21 -28 15 -41 -6 -14
-13 14 -26 21 -36 17 -15 -6 -15 -8 0 -31 9 -14 12 -25 7 -25 -5 0 -15 10 -24
23 -11 17 -18 19 -27 11 -9 -9 -9 -17 0 -34 18 -33 6 -34 -13 -1 -17 29 -17
29 13 43 16 7 30 16 30 20 0 15 43 8 56 -9z m1722 -6 c8 -10 6 -16 -9 -25 -11
-7 -23 -11 -27 -8 -11 6 -38 -11 -30 -19 3 -4 23 -2 44 4 33 9 41 8 58 -8 40
-40 -20 -112 -81 -96 -32 8 -25 28 15 40 45 13 40 26 -8 19 -46 -8 -70 7 -70
41 0 45 82 84 108 52z m-1830 -73 c4 -30 -21 -48 -47 -34 -21 11 -28 40 -14
54 15 15 58 1 61 -20z m1725 -45 c43 -70 44 -75 17 -89 -11 -6 -20 -8 -20 -6
0 3 -11 -6 -25 -19 -13 -14 -35 -25 -49 -25 -30 0 -86 61 -86 93 0 24 33 67
50 67 20 0 25 3 38 21 21 30 35 23 75 -42z m-1869 30 c-3 -6 -3 -14 2 -18 12
-8 36 -52 32 -56 -7 -7 -43 42 -42 56 2 23 4 29 10 29 3 0 2 -5 -2 -11z m54
-1 c-1 -7 3 -23 10 -35 19 -34 -1 -28 -21 6 -16 28 -15 33 11 40 2 1 2 -5 0
-11z m3488 -30 l19 -23 -23 19 c-17 15 -25 17 -34 8 -9 -9 -9 -15 0 -24 7 -7
12 -17 12 -22 0 -6 -7 0 -16 12 -12 18 -13 26 -4 37 17 20 24 19 46 -7z
m-3573 -57 c10 -17 15 -31 10 -31 -8 0 -53 64 -53 76 0 12 25 -14 43 -45z
m3501 34 c-4 -8 -2 -21 2 -28 5 -7 1 -4 -9 7 -14 15 -15 21 -5 27 18 12 18 11
12 -6z m-1830 -11 c5 -13 9 -14 20 -4 12 9 17 7 25 -8 7 -13 7 -22 -1 -30 -16
-16 15 -60 44 -64 32 -4 34 -32 3 -46 -32 -15 -55 -4 -75 33 -8 15 -25 31 -38
36 -14 6 -22 16 -20 26 1 10 -1 24 -6 32 -6 9 -3 18 9 28 24 17 32 17 39 -3z
m1816 -38 c0 -12 -5 -7 -19 24 -11 24 -11 24 3 6 9 -11 16 -24 16 -30z m-3535
15 c-3 -11 -1 -22 5 -26 5 -3 10 -14 10 -23 0 -11 -6 -7 -18 13 -13 21 -15 33
-8 42 15 17 18 16 11 -6z m3513 -32 c11 0 12 -2 4 -6 -15 -6 -42 14 -42 31 0
6 5 3 11 -6 5 -10 18 -18 27 -19z m-28 -23 c0 -6 -7 -1 -15 10 -8 10 -15 23
-15 28 0 6 7 1 15 -10 8 -10 15 -23 15 -28z m-3497 -16 c-6 -6 -33 30 -33 44
0 6 9 0 20 -14 10 -14 16 -27 13 -30z m-70 33 c-37 -7 -49 -30 -28 -53 10 -11
13 -20 8 -20 -6 0 -16 7 -23 15 -21 25 3 65 37 64 23 -1 24 -3 6 -6z m3537
-15 c10 -21 10 -21 -3 -5 -29 35 -47 17 -26 -26 9 -19 7 -18 -10 3 -15 19 -23
22 -31 14 -9 -9 -9 -17 -1 -33 7 -12 9 -21 7 -21 -3 0 -11 10 -17 22 -10 19
-8 25 17 45 36 29 50 29 64 1z m-3166 -9 c13 -19 13 -24 0 -36 -19 -20 -58
-13 -62 11 -4 18 21 46 39 46 4 0 15 -10 23 -21z m-334 -3 c0 -27 -12 -46 -29
-46 -14 1 -14 2 2 11 25 14 21 32 -5 26 -22 -6 -22 -6 -4 8 25 19 36 19 36 1z
m1711 3 c16 -8 18 -13 8 -25 -6 -8 -22 -14 -35 -14 -13 0 -24 -5 -24 -11 0 -7
14 -8 41 -4 31 5 45 3 60 -11 25 -22 24 -26 -7 -63 -19 -23 -34 -31 -59 -31
-19 0 -37 5 -41 11 -8 13 22 33 50 34 11 0 21 6 24 14 3 11 -1 12 -19 7 -13
-3 -33 -9 -45 -12 -25 -6 -54 18 -54 46 0 18 53 70 71 70 6 0 19 -5 30 -11z
m-1466 -30 c-3 -4 3 -17 15 -29 11 -11 15 -20 9 -20 -13 0 -48 41 -49 57 0 7
7 10 15 7 8 -4 12 -10 10 -15z m1312 5 c7 -20 -22 -45 -43 -37 -14 5 -19 35
-7 46 12 13 44 7 50 -9z m1840 -29 c-22 -16 -22 -29 1 -20 12 4 14 3 6 -5 -11
-11 -44 -4 -44 10 0 5 9 12 20 15 11 4 17 11 14 17 -5 7 -2 8 6 3 10 -6 10
-11 -3 -20z m-3191 -1 c-3 -8 4 -20 15 -28 11 -8 16 -16 11 -20 -9 -5 -52 37
-52 52 0 5 7 9 15 9 9 0 14 -6 11 -13z m2116 -21 c-5 -10 -12 -38 -16 -62 -12
-81 -42 -120 -137 -176 -31 -18 -67 -40 -80 -48 -23 -16 -25 -15 -62 38 l-38
55 168 109 c92 61 169 108 171 106 2 -2 -1 -12 -6 -22z m-705 -50 c39 -62 41
-69 26 -80 -9 -7 -19 -13 -22 -13 -4 0 -25 30 -48 67 -39 61 -41 67 -25 79 9
7 19 14 22 14 3 0 24 -30 47 -67z m1718 58 c-3 -5 -1 -12 5 -16 5 -3 10 -11
10 -18 0 -6 -6 -2 -14 8 -13 18 -13 35 0 35 3 0 3 -4 -1 -9z m-3144 -46 c8
-16 6 -15 -10 4 -12 13 -21 28 -21 35 0 12 14 -5 31 -39z m1313 11 c19 7 34
-22 18 -38 -17 -17 24 -70 48 -63 25 8 35 -24 13 -41 -30 -22 -51 -16 -84 26
-31 38 -33 39 -51 23 -24 -21 -23 -48 4 -85 21 -30 21 -31 3 -44 -10 -8 -21
-14 -24 -14 -8 0 -81 119 -81 130 0 16 38 31 43 17 3 -7 6 -5 6 5 1 9 10 23
21 31 14 10 18 20 14 32 -5 12 -1 23 12 32 16 12 20 12 30 -2 7 -9 18 -13 28
-9z m1796 -31 c0 -11 -14 7 -31 40 -7 13 -3 12 10 -5 11 -14 21 -29 21 -35z
m-3140 14 c7 -11 9 -23 7 -26 -3 -2 -10 5 -17 16 -11 22 -40 29 -40 10 0 -6 5
-19 11 -31 16 -30 4 -32 -15 -3 -14 21 -15 29 -5 41 17 20 47 17 59 -7z m-75
-49 c17 -12 23 -20 15 -18 -21 7 -50 -10 -51 -30 -1 -25 -17 27 -18 62 -1 21
2 26 12 19 6 -5 26 -20 42 -33z m1283 -125 l42 -66 -28 -12 c-15 -6 -33 -19
-39 -28 -34 -45 -100 -27 -130 36 -20 43 -7 79 34 98 16 6 34 17 41 24 24 23
38 14 80 -52z m1132 60 c0 -9 -122 -87 -127 -81 -8 7 -10 5 57 50 51 34 70 42
70 31z m40 -13 c0 -4 -28 -25 -62 -46 -35 -21 -74 -46 -87 -55 -17 -11 -23
-12 -20 -3 4 12 146 110 162 111 4 1 7 -2 7 -7z m64 -67 c20 -30 36 -61 36
-70 0 -16 -156 -125 -180 -125 -19 0 -96 118 -84 129 16 15 179 121 185 121 3
0 23 -25 43 -55z m-1496 -35 c18 -11 42 -39 54 -65 27 -55 18 -90 -28 -117
-42 -24 -74 -12 -114 43 -40 56 -40 99 1 133 37 31 44 32 87 6z m815 -39 c15
-27 27 -63 27 -79 0 -32 -22 -62 -45 -62 -8 0 -16 -8 -19 -17 -4 -10 -37 -33
-74 -50 -69 -33 -81 -42 -140 -107 -19 -20 -40 -36 -48 -36 -8 0 -14 -6 -14
-14 0 -22 -49 -25 -94 -5 -91 40 -213 37 -265 -7 -16 -13 -32 -20 -35 -16 -5
9 649 440 669 441 6 1 22 -21 38 -48z m-924 -114 c42 -63 50 -81 40 -93 -20
-24 -33 -16 -76 51 -29 43 -48 63 -57 59 -8 -3 -19 3 -25 14 -9 17 -6 23 22
41 17 11 35 17 38 13 3 -4 30 -42 58 -85z m1792 84 c-8 -5 -10 -14 -6 -22 6
-11 5 -11 -5 -2 -14 12 -6 33 13 33 8 0 7 -3 -2 -9z m-21 -58 c6 -7 7 -13 2
-13 -10 0 -42 44 -42 57 0 4 7 -1 15 -12 8 -11 19 -26 25 -32z m45 18 c-3 -6
-11 -11 -16 -11 -5 0 -4 6 3 14 14 16 24 13 13 -3z m-88 -7 c-3 -3 -12 -4 -19
-1 -8 3 -5 6 6 6 11 1 17 -2 13 -5z m-47 -69 c0 -11 -14 7 -31 40 -7 13 -3 12
10 -5 11 -14 21 -29 21 -35z m68 30 c-3 -3 -9 2 -12 12 -6 14 -5 15 5 6 7 -7
10 -15 7 -18z m-49 -19 c-3 -3 -11 5 -18 17 -13 21 -12 21 5 5 10 -10 16 -20
13 -22z m-59 -15 c7 10 9 8 7 -8 -1 -17 -5 -20 -19 -12 -9 5 -20 15 -24 22 -5
7 -1 6 10 -2 15 -13 19 -13 26 0z m-25 -49 c-2 -2 -12 5 -23 16 -11 11 -18 23
-14 27 3 3 14 -4 23 -17 10 -12 16 -24 14 -26z m-1739 4 c22 -22 34 -44 34
-60 0 -30 -40 -76 -65 -76 -14 0 -14 -5 5 -35 18 -29 20 -38 10 -50 -7 -8 -16
-15 -20 -15 -9 0 -130 185 -130 198 0 4 9 13 20 20 16 10 20 10 21 0 0 -7 5
-3 11 8 10 22 41 42 67 43 7 1 28 -14 47 -33z m1674 4 c1 22 2 23 9 6 4 -11
16 -23 27 -28 15 -6 13 -7 -9 -4 -22 3 -27 0 -23 -13 3 -9 -2 -6 -11 7 l-16
22 -13 -26 c-8 -14 -11 -31 -8 -38 3 -6 -4 0 -15 14 -22 27 -27 50 -11 50 5 0
7 -7 4 -15 -4 -9 0 -15 10 -15 15 0 20 15 18 50 0 9 7 5 19 -10 l19 -25 0 25z
m-1826 -111 c34 -40 33 -74 -3 -110 -38 -37 -76 -38 -113 -2 -38 36 -38 84 -2
118 39 36 85 34 118 -6z m3501 6 c0 -28 -29 -25 -33 3 -3 19 0 23 15 20 10 -2
18 -12 18 -23z m-3691 -22 c5 -11 0 -23 -13 -33 -20 -15 -20 -16 19 -77 22
-34 40 -66 40 -70 0 -5 -8 -13 -18 -20 -16 -10 -24 -3 -62 58 -42 67 -44 69
-66 54 -19 -13 -24 -12 -35 1 -14 17 -17 14 57 63 69 46 70 46 78 24z m3734
-30 c5 -17 -26 -29 -40 -15 -6 6 -7 15 -3 22 9 14 37 9 43 -7z m35 -69 c-3 -8
-12 -14 -19 -14 -20 0 -30 30 -13 40 17 11 40 -7 32 -26z m-2606 6 c21 -13 36
-32 44 -59 10 -35 16 -40 55 -50 59 -15 56 -25 -5 -17 -44 6 -51 4 -61 -15 -7
-11 -27 -27 -45 -35 -87 -36 -167 43 -131 130 27 64 83 83 143 46z m-569 -47
c-48 -53 -63 -85 -73 -153 -5 -41 -9 -47 -45 -62 -36 -15 -40 -20 -38 -49 2
-25 -2 -35 -24 -48 -23 -13 -78 -81 -78 -96 0 -2 21 -7 48 -10 85 -11 88 -13
131 -78 22 -35 41 -66 41 -69 0 -4 -16 -16 -36 -29 l-37 -22 -18 24 c-10 13
-19 27 -19 32 0 12 -27 8 -38 -6 -8 -9 -5 -19 8 -37 11 -14 20 -30 20 -35 0
-11 -51 -45 -68 -45 -5 0 -28 29 -51 63 l-41 64 20 64 c11 35 20 67 20 70 0 8
-52 -3 -94 -20 -16 -6 -30 -10 -32 -9 -20 21 -94 141 -90 147 3 4 105 73 228
152 122 79 240 156 262 171 23 15 43 27 45 27 2 1 -16 -20 -41 -46z m801 -177
c-3 -3 -11 5 -18 17 -13 21 -12 21 5 5 10 -10 16 -20 13 -22z m-141 -50 c-7
-8 -15 -12 -17 -11 -5 6 10 25 20 25 5 0 4 -6 -3 -14z m33 -18 c-4 -12 -14
-24 -22 -26 -12 -3 -12 -2 0 6 7 5 11 14 7 20 -5 9 0 13 21 21 1 1 -1 -9 -6
-21z m-53 -19 c10 -13 9 -19 -5 -30 -16 -13 -17 -12 -5 3 9 11 10 18 2 23 -5
3 -10 11 -10 17 0 6 1 9 3 7 1 -2 8 -11 15 -20z m-63 -25 c13 -20 14 -28 4
-40 -16 -20 -24 -18 -44 12 -13 20 -14 28 -4 40 16 20 24 18 44 -12z m25 1
c14 -19 14 -19 -2 -6 -10 7 -18 18 -18 24 0 6 1 8 3 6 1 -2 9 -13 17 -24z
m-569 -368 c-10 -9 -11 -8 -5 6 3 10 9 15 12 12 3 -3 0 -11 -7 -18z m-45 -18
c5 -8 9 -8 14 1 4 7 10 8 13 4 3 -5 -1 -15 -9 -22 -9 -8 -14 -9 -14 -2 0 6
-10 15 -22 20 -17 6 -18 9 -6 9 9 1 20 -4 24 -10z m64 1 c0 -5 -5 -10 -11 -10
-5 0 -7 5 -4 10 3 6 8 10 11 10 2 0 4 -4 4 -10z m-91 -32 c14 -23 14 -23 -8
-4 -16 15 -24 17 -33 8 -9 -9 -9 -15 0 -24 7 -7 12 -16 12 -22 0 -5 -7 -1 -16
10 -15 18 -15 18 -10 0 9 -26 -12 -48 -37 -40 -16 5 -19 3 -13 -12 5 -17 5
-17 -7 -2 -9 12 -17 14 -30 6 -14 -8 -16 -13 -6 -24 6 -8 9 -14 6 -14 -3 0
-16 15 -28 33 -13 17 -16 26 -7 19 20 -16 48 -5 41 16 -4 13 -2 12 10 -3 11
-13 16 -15 17 -6 0 11 3 11 15 1 20 -17 46 3 28 21 -8 8 -5 18 10 35 26 30 38
30 56 2z m-10719 -117 c118 -31 228 -86 304 -151 85 -72 108 -96 154 -163 61
-89 109 -196 129 -290 23 -108 13 -318 -20 -412 -87 -252 -261 -424 -515 -512
-71 -25 -90 -27 -237 -27 -151 -1 -165 1 -245 28 -301 102 -503 346 -541 656
-36 283 70 543 291 721 183 147 461 208 680 150z m3220 -371 c34 -34 36 -72 5
-108 -34 -41 -84 -44 -120 -7 -37 36 -34 86 7 120 36 31 74 29 108 -5z m408
-73 l3 -58 -46 7 c-40 5 -49 3 -71 -17 -14 -13 -24 -34 -24 -50 l0 -28 111 -3
110 -3 24 -60 c12 -33 40 -105 60 -160 21 -55 41 -110 46 -122 10 -27 25 -30
32 -5 14 46 115 331 121 341 4 6 36 11 73 11 58 0 64 -2 58 -17 -4 -10 -22
-58 -40 -108 -61 -164 -118 -311 -156 -400 -16 -38 -29 -74 -29 -78 0 -17 -54
-79 -81 -93 -56 -29 -209 -9 -209 27 0 5 9 28 21 50 15 31 24 39 37 33 41 -17
77 -15 100 6 25 24 28 51 8 88 -8 15 -31 68 -51 117 -40 98 -49 121 -89 208
l-26 58 -58 -3 -57 -3 -5 -215 -5 -215 -60 0 -60 0 -3 212 -2 213 -33 8 c-31
8 -32 10 -32 58 0 48 1 49 33 52 29 3 32 6 32 36 0 60 29 125 69 152 32 22 45
24 116 22 l80 -3 3 -58z m-2417 32 c59 -13 123 -40 159 -68 l25 -20 -23 -28
c-12 -15 -25 -36 -29 -45 -7 -23 -28 -23 -61 0 -67 45 -179 59 -226 29 -38
-25 -50 -53 -37 -86 16 -36 40 -49 153 -82 126 -36 172 -61 208 -111 26 -35
30 -50 30 -106 0 -96 -39 -155 -128 -194 -69 -31 -206 -30 -282 2 -65 28 -140
77 -140 91 0 6 16 30 36 55 l36 44 37 -29 c53 -42 118 -65 181 -65 94 0 143
42 126 108 -7 29 -89 72 -157 82 -58 9 -163 58 -194 92 -37 40 -50 119 -31
185 14 48 35 76 89 117 23 17 101 38 144 39 18 1 55 -4 84 -10z m1669 -104 l5
-70 73 -3 73 -3 -3 -52 -3 -52 -60 -3 c-32 -2 -65 -8 -72 -14 -17 -14 -18
-246 -2 -282 14 -30 54 -41 93 -26 38 14 46 6 46 -45 0 -61 -22 -75 -122 -75
-75 0 -79 1 -111 34 -39 39 -45 69 -47 271 -1 65 -4 123 -6 127 -3 4 -16 8
-30 8 -23 0 -24 3 -24 55 0 54 0 55 30 55 l30 0 0 68 c0 38 3 72 7 76 4 4 32
6 63 4 l55 -3 5 -70z m-983 -95 c88 -46 133 -129 133 -247 0 -180 -93 -286
-251 -286 -60 0 -76 4 -120 32 -28 17 -52 31 -55 31 -2 0 -4 -49 -4 -110 l0
-110 -65 0 -65 0 0 355 0 355 65 0 65 0 0 -30 c0 -37 17 -38 49 -5 12 14 37
29 55 35 49 15 146 5 193 -20z m611 1 c64 -33 120 -98 139 -160 20 -70 13
-171 -14 -226 -79 -154 -283 -199 -432 -97 -172 118 -151 382 39 482 67 36
199 36 268 1z m11430 22 c-15 -2 -42 -2 -60 0 -18 2 -6 4 27 4 33 0 48 -2 33
-4z m-10713 -278 l0 -270 -62 -3 -63 -3 0 276 0 276 63 -3 62 -3 0 -270z
m10610 266 c-3 -6 8 -8 27 -6 86 11 152 13 133 4 -14 -6 -7 -7 25 -4 29 3 38
2 25 -3 -18 -8 -17 -9 8 -15 24 -7 59 -47 39 -47 -5 0 -7 -12 -5 -27 2 -16 0
-53 -5 -83 -9 -54 -10 -54 -11 -14 -1 33 -6 45 -26 58 -20 13 -25 25 -25 56 0
22 5 40 10 40 6 0 10 -16 10 -35 0 -24 5 -35 15 -35 8 0 15 6 16 13 4 44 3 53
-6 59 -16 12 -60 9 -73 -4 -22 -22 -14 -82 14 -109 22 -20 25 -31 22 -71 -3
-48 6 -60 29 -37 9 9 10 6 6 -10 -3 -12 -14 -28 -25 -35 -17 -12 -15 -14 21
-20 42 -6 66 -33 58 -64 -4 -13 -5 -12 -6 4 0 12 -7 27 -15 33 -20 17 -150 42
-231 46 -85 3 -271 -38 -388 -85 -43 -17 -86 -30 -95 -28 -17 3 -62 63 -62 82
1 6 10 -5 20 -25 11 -20 26 -39 35 -43 9 -3 47 6 86 21 38 15 66 29 60 31 -5
2 -23 -4 -40 -13 -33 -17 -41 -7 -15 20 15 14 15 19 -1 58 -10 23 -19 48 -22
55 -3 6 2 12 10 12 9 0 22 -20 33 -50 17 -47 35 -62 48 -41 8 12 -30 101 -43
101 -5 0 -12 15 -15 34 -4 19 -15 45 -25 57 -17 21 -22 22 -45 11 -36 -16 -45
-15 -22 3 15 11 16 15 5 16 -8 0 -3 5 10 10 16 6 28 6 38 -2 7 -7 17 -9 20 -5
4 4 1 11 -7 17 -11 7 -6 8 15 3 24 -4 27 -3 15 6 -12 9 -9 10 13 5 19 -4 26
-2 22 5 -4 7 3 9 22 5 22 -5 25 -4 13 5 -12 9 -7 10 20 5 28 -5 32 -4 20 5
-12 9 -8 11 18 6 42 -7 99 4 80 15 -7 5 12 6 46 3 44 -5 57 -4 52 4 -5 8 3 12
24 12 17 0 29 -4 25 -9z m-178 -17 c-3 -3 -12 -4 -19 -1 -8 3 -5 6 6 6 11 1
17 -2 13 -5z m-9387 -19 c10 -12 10 -18 0 -30 -6 -8 -9 -19 -5 -26 6 -8 2 -8
-13 0 -27 15 -30 14 -35 -6 -3 -10 -5 3 -6 30 -1 43 1 47 23 47 13 0 29 -7 36
-15z m9912 -88 c14 -28 20 -64 23 -130 1 -51 6 -126 10 -167 l7 -76 -41 -37
c-23 -20 -48 -37 -58 -37 -10 0 -4 8 17 23 18 12 42 34 53 49 18 24 19 32 8
103 -6 42 -11 112 -11 156 0 90 -12 121 -69 184 l-36 40 38 -35 c21 -19 48
-52 59 -73z m-972 83 l-25 -8 26 -1 c45 -2 68 -31 102 -133 19 -53 30 -95 25
-92 -4 3 -8 0 -8 -6 0 -6 -5 -8 -10 -5 -6 4 -31 -3 -55 -14 -25 -12 -47 -21
-50 -21 -3 0 -15 -9 -27 -20 -15 -14 0 -9 47 15 65 33 85 36 85 14 0 -6 -5 -7
-11 -4 -15 10 -126 -47 -174 -89 l-40 -35 43 -43 c32 -33 41 -49 36 -64 -4
-10 -44 -55 -89 -99 -90 -89 -196 -218 -224 -274 -30 -58 -53 -132 -60 -194
-7 -57 -7 -59 24 -82 17 -13 51 -33 75 -44 25 -11 39 -21 32 -21 -34 0 -152
75 -152 97 0 8 -5 11 -10 8 -6 -4 -8 -11 -5 -16 4 -5 1 -9 -4 -9 -6 0 -11 4
-11 10 0 19 -35 50 -56 50 -32 0 -107 29 -116 44 -4 7 -18 12 -30 11 -21 -2
-23 2 -24 39 -1 22 -4 52 -8 66 -5 21 -5 22 3 5 10 -22 9 -25 16 50 1 11 3 26
4 32 0 7 7 12 14 10 7 -1 12 7 11 20 0 12 4 19 9 16 6 -4 8 1 4 11 -5 11 -3
15 5 10 8 -5 9 -2 5 10 -4 9 -3 15 2 12 5 -3 12 1 15 10 4 9 2 13 -5 8 -7 -4
-7 1 1 16 7 12 17 19 26 16 8 -3 14 1 14 10 0 8 8 27 18 41 13 22 14 25 2 19
-8 -5 -4 2 10 15 14 13 19 20 10 15 -8 -5 3 8 26 30 22 21 29 30 15 19 -17
-14 -13 -6 13 28 21 26 41 47 44 47 3 0 -3 -10 -14 -21 -19 -22 -19 -22 4 -8
19 12 25 24 21 45 -1 3 18 25 41 49 32 32 47 41 66 37 13 -2 24 -8 24 -13 0
-4 20 -27 45 -50 25 -23 45 -45 45 -49 0 -3 -25 -3 -55 0 -38 4 -62 13 -80 30
-24 22 -25 22 -25 4 0 -11 13 -33 28 -48 23 -21 37 -26 66 -24 30 2 43 -4 69
-30 22 -23 27 -32 16 -32 -9 0 -22 7 -29 15 -15 18 -40 20 -40 2 0 -38 49 -48
80 -17 20 20 40 26 40 13 0 -4 -12 -21 -27 -37 -26 -29 -26 -29 -3 -11 62 48
110 101 110 120 0 12 -16 36 -35 55 -19 19 -35 39 -35 46 0 7 17 26 38 43 20
17 30 30 22 30 -8 0 -31 -20 -51 -44 l-37 -44 -23 25 c-12 13 -27 24 -34 24
-11 0 -25 14 -66 70 -32 42 -44 120 -23 147 9 11 13 13 12 4 -2 -7 3 -16 10
-18 9 -4 10 1 3 20 -8 21 -5 29 21 53 17 16 28 23 24 17 -10 -18 -3 -16 38 8
20 12 33 25 30 30 -3 5 -2 9 3 10 58 7 90 6 102 -4 11 -10 13 -9 9 3 -2 8 -15
17 -29 21 -15 5 -2 7 36 7 44 0 53 -2 35 -8z m66 -18 c26 -20 49 -62 35 -62
-5 0 -12 9 -16 20 -3 11 -18 29 -32 40 -14 11 -22 20 -17 20 5 0 19 -8 30 -18z
m84 -42 c-8 -5 -19 -10 -25 -10 -5 0 -3 5 5 10 8 5 20 10 25 10 6 0 3 -5 -5
-10z m-2123 -22 c-4 -13 -9 -42 -13 -66 -4 -23 -10 -44 -13 -46 -8 -5 -120 20
-129 28 -13 14 8 14 60 2 l56 -13 12 59 c6 32 16 58 22 58 6 0 8 -10 5 -22z
m2195 -43 c10 -25 13 -45 8 -45 -4 0 -13 12 -18 28 -5 15 -13 35 -17 45 -4 9
-3 17 2 17 5 0 16 -20 25 -45z m-535 -117 c-2 -13 -4 -5 -4 17 -1 22 1 32 4
23 2 -10 2 -28 0 -40z m17 -86 c-13 -13 -15 -13 -7 -2 8 10 9 21 3 30 -17 26
-11 35 6 11 15 -21 15 -24 -2 -39z m1203 -119 c-2 -16 -4 -3 -4 27 0 30 2 43
4 28 2 -16 2 -40 0 -55z m-427 60 c0 -5 -10 -47 -22 -95 l-22 -87 22 -43 c33
-65 187 -299 203 -309 8 -5 9 -9 3 -9 -17 0 -33 22 -138 186 -60 94 -96 161
-96 178 0 14 9 58 20 97 11 40 17 76 14 80 -3 5 0 9 5 9 6 0 11 -3 11 -7z
m-342 -19 c20 -6 16 -10 -30 -31 -29 -13 -68 -38 -85 -56 -18 -17 -33 -28 -33
-24 0 13 66 67 104 84 l41 18 -35 6 c-26 5 -29 7 -10 8 14 0 35 -2 48 -5z
m130 -30 c25 -24 43 -34 57 -30 19 5 19 4 1 -9 -22 -17 -49 -4 -65 32 -6 12
-21 25 -33 27 -13 3 -32 7 -43 9 -12 3 -6 5 13 6 25 1 42 -7 70 -35z m-246
-13 c-9 -16 -18 -28 -21 -26 -4 5 27 55 34 55 2 0 -4 -13 -13 -29z m-4539 -41
c200 -37 328 -197 315 -394 -6 -97 -45 -181 -112 -245 -88 -82 -150 -106 -279
-104 -130 2 -258 87 -320 212 -29 59 -32 74 -32 156 1 69 6 103 23 145 46 115
162 209 284 229 29 5 56 9 59 10 3 0 31 -4 62 -9z m4716 -29 c-41 -22 -46 -36
-20 -50 26 -15 69 4 74 33 3 20 4 20 12 2 6 -13 3 -29 -8 -48 -9 -16 -12 -26
-7 -23 8 5 15 -22 12 -47 -1 -3 5 -9 13 -12 17 -6 21 19 5 29 -5 3 -10 14 -10
23 0 9 12 -2 26 -26 24 -41 25 -45 11 -75 -18 -36 -71 -72 -90 -60 -6 4 -20 7
-31 8 -10 0 -30 16 -45 35 l-26 34 34 -24 c35 -24 34 -13 -2 27 -10 12 -25 19
-33 16 -15 -6 -44 13 -44 29 0 6 7 7 16 4 26 -10 54 12 54 44 0 38 -12 44 -43
20 -14 -11 -28 -16 -31 -11 -4 5 -2 12 4 16 5 3 10 14 10 25 0 22 23 33 39 17
11 -11 51 4 79 31 8 7 18 9 23 6 6 -3 -4 -14 -22 -23z m184 -15 c-6 -10 -13
-12 -23 -6 -13 8 -12 11 5 24 22 16 32 6 18 -18z m-400 -11 c-3 -9 -8 -14 -10
-11 -3 3 -2 9 2 15 9 16 15 13 8 -4z m1084 -25 c9 -16 25 -30 35 -30 11 0 18
-7 18 -19 0 -11 5 -23 10 -26 6 -3 10 -13 10 -21 0 -8 -4 -14 -10 -14 -5 0
-10 8 -10 18 0 10 -3 13 -8 6 -4 -6 -14 -13 -23 -16 -13 -5 -16 -2 -12 13 3
10 9 17 13 14 4 -3 10 4 13 15 3 11 1 18 -3 15 -5 -3 -21 11 -37 31 -27 36
-28 37 -34 13 -6 -21 -7 -22 -8 -3 -2 43 21 45 46 4z m-1072 -62 c16 -10 20
-43 6 -52 -5 -4 -7 3 -4 13 3 11 -4 28 -16 40 -12 12 -21 31 -20 44 1 18 2 17
10 -7 4 -17 15 -34 24 -38z m1021 -14 c-3 -8 -16 -13 -28 -13 l-23 2 23 4 c16
3 22 12 23 31 1 18 3 21 6 9 3 -10 2 -25 -1 -33z m26 -36 c-8 -8 -9 -4 -5 13
4 13 8 18 11 10 2 -7 -1 -18 -6 -23z m-541 -110 c43 -67 77 -124 75 -125 -7
-7 -166 48 -166 57 0 13 -3 13 65 -10 32 -11 60 -19 61 -17 2 1 -23 43 -55 93
-52 79 -88 153 -65 131 4 -4 43 -62 85 -129z m473 112 c5 -5 -7 -5 -26 -1 -41
10 -57 -7 -52 -54 3 -30 -18 -75 -36 -75 -6 0 -3 15 7 33 20 38 24 69 9 64 -6
-3 -10 -9 -9 -14 1 -5 -5 -10 -14 -10 -11 0 -7 8 13 25 16 14 28 32 26 40 -3
12 4 13 35 7 21 -3 42 -10 47 -15z m207 -6 c7 -9 14 -27 15 -39 0 -13 13 -38
27 -55 15 -17 30 -44 33 -58 3 -15 9 -34 13 -42 5 -10 3 -21 -7 -29 -12 -12
-12 -15 4 -25 11 -5 24 -11 29 -12 6 0 16 -2 23 -2 17 -2 5 -22 -13 -22 -8 0
-26 11 -41 25 -14 13 -31 22 -37 18 -6 -4 -7 -1 -3 6 10 15 -23 41 -41 34 -17
-7 -16 -23 3 -44 13 -15 14 -23 3 -59 -7 -24 -24 -49 -40 -61 -27 -19 -94 -26
-114 -11 -17 12 -47 63 -41 69 3 3 8 -1 12 -10 3 -9 18 -23 32 -33 15 -9 21
-10 14 -3 -10 11 -9 16 9 30 17 12 19 18 9 24 -8 5 -11 4 -7 -2 13 -21 -23
-22 -42 -2 -15 17 -23 19 -39 10 -14 -7 -23 -8 -27 -1 -3 5 0 10 8 10 20 0 45
31 48 60 4 45 0 60 -16 54 -23 -9 -18 0 15 24 20 15 28 18 24 7 -4 -8 -11 -15
-18 -15 -6 -1 -1 -9 12 -20 23 -19 74 -22 100 -7 6 5 12 18 13 30 0 21 1 21
10 -2 6 -16 6 -28 -2 -38 -14 -16 -18 -84 -5 -75 5 3 7 -2 3 -11 -4 -11 -2
-14 8 -11 9 4 12 18 10 42 -2 20 1 42 7 49 5 7 7 17 3 23 -13 20 13 9 28 -12
16 -23 16 -22 17 17 1 36 2 38 11 16 5 -13 10 -35 11 -47 1 -13 6 -20 10 -16
13 13 -20 107 -47 132 -14 13 -25 34 -25 46 0 12 -7 30 -16 38 -8 9 -11 16 -6
16 5 0 16 -7 23 -16z m-4091 -4 c13 -8 12 -11 -4 -23 -11 -8 -28 -12 -38 -9
-11 3 -18 -1 -18 -11 0 -13 7 -13 42 -4 37 9 43 8 59 -12 23 -29 10 -62 -35
-86 -27 -14 -37 -15 -55 -6 -18 10 -20 15 -10 27 6 8 22 14 35 14 12 0 26 5
30 11 5 9 -6 10 -40 5 -53 -8 -76 3 -76 37 0 48 69 83 110 57z m3860 -19 c0
-5 -7 -12 -16 -15 -14 -5 -15 -4 -4 9 14 17 20 19 20 6z m211 -17 c14 -17 11
-17 -30 -3 -17 6 -31 14 -31 19 0 12 48 -1 61 -16z m-154 0 c-3 -3 -12 -4 -19
-1 -8 3 -5 6 6 6 11 1 17 -2 13 -5z m-963 -20 c9 -24 8 -26 -16 -18 -32 9 -35
14 -18 24 21 13 27 12 34 -6z m-3053 -72 l40 -62 -28 -13 c-15 -6 -35 -21 -44
-31 -20 -24 -72 -25 -98 -2 -50 45 -47 115 6 139 16 6 34 18 42 25 23 22 40
10 82 -56z m3949 47 c0 -5 -4 -8 -9 -5 -5 4 -14 -6 -19 -21 -9 -23 -11 -24
-11 -7 -1 20 16 44 31 44 4 0 8 -5 8 -11z m-1002 -29 c35 -6 75 -16 89 -23 15
-7 55 -56 97 -122 91 -138 91 -139 80 -132 -5 3 -38 51 -73 106 -85 133 -94
140 -192 160 -54 10 -84 21 -87 31 -4 12 -2 13 9 3 8 -6 42 -16 77 -23z m511
-15 c24 -41 12 -47 -18 -7 -11 15 -21 21 -21 15 0 -20 -17 -15 -23 7 -3 11 -1
18 3 15 5 -3 11 -1 15 5 9 14 20 6 44 -35z m722 28 c13 -16 12 -17 -3 -4 -10
7 -18 15 -18 17 0 8 8 3 21 -13z m-341 -28 c0 -38 -15 -37 -17 1 -1 19 3 32 8
29 5 -4 9 -17 9 -30z m102 -15 c-2 -16 -6 -30 -8 -30 -2 0 -4 14 -4 30 0 17 4
30 8 30 5 0 7 -13 4 -30z m-572 -11 c26 -15 -32 -10 -65 6 l-30 15 40 -6 c22
-3 47 -10 55 -15z m732 6 c0 -5 -5 -11 -11 -13 -6 -2 -11 4 -11 13 0 9 5 15
11 13 6 -2 11 -8 11 -13z m-698 -33 c-4 -18 -10 -32 -15 -32 -12 0 -11 13 1
46 14 35 22 26 14 -14z m499 -74 c3 -29 4 -44 1 -33 -3 11 -12 25 -19 31 -8 5
-17 23 -20 40 -5 22 -4 25 4 14 8 -12 11 -8 12 20 1 34 1 34 9 8 4 -15 10 -51
13 -80z m-93 88 c0 -2 -8 -10 -17 -17 -16 -13 -17 -12 -4 4 13 16 21 21 21 13z
m-3996 -19 c16 -12 16 -14 2 -26 -9 -8 -26 -14 -39 -15 -31 -1 -37 -50 -7 -66
22 -12 40 -6 40 13 0 7 10 18 21 26 40 24 46 -20 10 -63 -37 -43 -95 -40 -127
9 -26 39 -21 75 15 107 34 31 58 35 85 15z m3520 -29 c-7 -45 -24 -76 -24 -43
0 18 21 85 27 85 2 0 0 -19 -3 -42z m604 16 c4 2 7 -11 7 -29 0 -32 -1 -33
-18 -18 -11 11 -14 19 -7 23 6 4 9 13 7 21 -2 8 -2 11 0 6 3 -4 8 -5 11 -3z
m-4308 -9 c10 -12 10 -18 0 -30 -16 -19 -39 -19 -46 0 -6 15 11 45 26 45 4 0
13 -7 20 -15z m3665 -5 c3 -6 -1 -7 -9 -4 -18 7 -21 14 -7 14 6 0 13 -4 16
-10z m705 -5 c0 -8 -4 -15 -10 -15 -5 0 -10 7 -10 15 0 8 5 15 10 15 6 0 10
-7 10 -15z m356 -6 c17 -19 17 -22 2 -49 -16 -28 -15 -29 33 -105 27 -42 49
-81 49 -87 0 -7 -16 -8 -44 -4 -27 4 -47 3 -51 -4 -7 -12 -49 -4 -87 18 -24
14 -29 14 -52 -2 -19 -12 -26 -25 -26 -49 0 -38 -33 -97 -55 -97 -8 0 -15 6
-15 13 0 8 -8 21 -18 30 -16 15 -23 13 -90 -30 -48 -29 -71 -50 -68 -59 3 -8
36 -62 74 -121 209 -327 272 -419 289 -428 47 -25 129 -125 103 -125 -6 0 -10
7 -10 15 0 9 -6 12 -15 9 -10 -4 -15 0 -15 10 0 9 -16 32 -36 50 -20 19 -43
40 -51 47 -14 13 -120 175 -287 438 -36 57 -66 109 -66 116 0 14 147 110 169
110 22 0 24 20 4 36 -13 11 -15 11 -9 1 7 -12 4 -12 -15 -1 -13 7 -24 11 -24
9 0 -2 -10 0 -22 4 -13 4 -23 12 -23 17 0 6 6 7 13 3 7 -5 6 0 -3 11 -14 17
-13 17 10 10 23 -7 24 -7 10 11 -12 16 -10 15 10 -2 14 -12 39 -29 55 -38 28
-16 31 -22 30 -71 0 -29 3 -51 8 -48 17 10 38 67 33 88 -5 18 1 28 23 44 33
24 52 26 70 9 10 -11 11 -9 5 7 -4 11 -10 25 -14 30 -4 6 -10 23 -13 40 -5 27
-4 28 9 10 8 -10 14 -25 14 -32 0 -7 6 -12 13 -10 8 1 11 -9 10 -29 -2 -27 1
-32 22 -36 17 -4 25 -1 25 9 0 9 6 13 14 10 8 -3 31 -9 52 -13 l37 -7 -23 39
c-13 21 -37 59 -53 83 -24 36 -28 47 -19 62 9 14 8 21 -4 34 -14 13 -14 15 3
16 12 0 9 5 -12 14 -25 12 -26 14 -9 15 11 0 29 -9 40 -21z m-1028 -98 c12
-23 18 -41 13 -41 -10 0 -101 132 -101 146 1 14 63 -60 88 -105z m145 69 c21
-8 21 -9 -3 -9 -35 -1 -113 24 -118 37 -3 11 64 -5 121 -28z m-183 -102 c0 7
5 10 10 7 12 -7 14 -65 3 -65 -12 0 -122 174 -116 183 3 5 27 -24 54 -65 27
-40 49 -67 49 -60z m240 117 c7 -8 8 -15 2 -15 -5 0 -15 7 -22 15 -7 8 -8 15
-2 15 5 0 15 -7 22 -15z m185 5 c-3 -5 -12 -10 -18 -10 -7 0 -6 4 3 10 19 12
23 12 15 0z m125 3 c0 -5 -38 -32 -84 -60 -77 -49 -86 -52 -115 -42 -17 6 -31
15 -31 20 0 12 17 11 41 -2 16 -8 33 -1 97 40 77 51 92 58 92 44z m-4139 -89
c34 -53 40 -67 28 -75 -26 -16 -35 -9 -77 56 -37 58 -39 66 -24 74 26 16 27
15 73 -55z m4598 6 c-1 -10 -2 -11 -6 -2 -2 6 -9 10 -13 7 -5 -3 -7 -12 -4
-19 12 -32 -14 -22 -28 10 -16 34 -16 35 2 19 10 -9 21 -12 24 -7 3 5 -6 15
-19 22 -13 7 -22 17 -19 22 8 12 63 -34 63 -52z m-1992 -12 c-2 -13 -4 -3 -4
22 0 25 2 35 4 23 2 -13 2 -33 0 -45z m1083 50 c0 -23 -29 -103 -29 -83 -1 36
11 95 20 95 5 0 9 -6 9 -12z m104 -8 c21 -8 26 -16 26 -43 0 -39 -21 -62 -67
-72 -38 -8 -54 14 -45 60 6 31 18 48 42 58 8 3 16 6 17 6 1 1 13 -3 27 -9z
m376 1 c0 -11 -130 -94 -137 -88 -4 4 125 97 134 97 2 0 3 -4 3 -9z m82 -23
c0 -13 1 -29 1 -35 -1 -7 3 -13 8 -13 5 0 9 -5 9 -11 0 -8 -5 -8 -15 1 -8 7
-15 24 -15 39 0 20 -2 23 -10 11 -8 -13 -10 -13 -10 1 0 34 29 40 32 7z
m-4351 -9 c16 -8 18 -13 8 -25 -6 -8 -22 -14 -35 -14 -13 0 -24 -4 -24 -10 0
-5 21 -9 46 -7 38 2 49 -2 61 -20 14 -21 13 -24 -15 -53 -32 -31 -84 -41 -98
-19 -8 13 22 33 50 34 11 0 21 6 24 14 3 11 -1 12 -19 7 -13 -3 -33 -9 -45
-12 -25 -6 -54 18 -54 46 0 18 53 70 71 70 6 0 19 -5 30 -11z m-201 -50 c0 -4
-10 -19 -22 -34 -18 -23 -22 -25 -30 -11 -12 22 30 85 43 64 5 -7 9 -16 9 -19z
m4820 -6 c0 -12 -77 -53 -84 -46 -4 4 10 17 31 30 40 24 53 28 53 16z m-4726
-51 c17 -26 36 -57 43 -68 13 -20 11 -23 -20 -38 -19 -8 -40 -22 -47 -31 -13
-16 -37 -19 -64 -9 -8 3 -30 28 -47 56 -32 49 -32 51 -13 65 17 13 21 12 34
-7 41 -58 57 -73 73 -67 23 9 21 35 -8 81 -22 37 -23 41 -7 52 24 19 24 19 56
-34z m2919 -67 c17 -7 63 -27 101 -44 37 -17 73 -28 79 -24 6 3 7 1 3 -6 -5
-7 5 -17 28 -26 41 -17 108 -8 135 20 14 14 14 17 1 25 -8 5 -10 10 -4 10 6 0
17 -6 23 -14 17 -20 -27 -52 -83 -60 -38 -6 -53 -2 -109 28 -36 19 -92 44
-124 56 -32 12 -65 27 -73 33 -20 15 -70 81 -70 92 0 4 14 -11 30 -34 17 -23
45 -48 63 -56z m841 45 c27 -41 32 -65 17 -74 -5 -4 -7 3 -4 13 3 11 -4 33
-14 48 -27 38 -35 53 -30 53 2 0 16 -18 31 -40z m-2974 22 c0 -5 9 -59 20
-121 16 -86 18 -116 9 -127 -21 -25 -37 -15 -44 26 -5 29 -16 47 -38 64 -54
39 -92 62 -84 49 5 -7 4 -13 -2 -13 -18 0 -12 -19 20 -67 25 -36 29 -47 18
-54 -25 -16 -37 -9 -65 35 -16 25 -36 47 -46 49 -9 3 -17 13 -17 23 0 11 -1
32 -2 48 -2 36 27 62 48 44 7 -6 11 -19 8 -29 -8 -24 0 -24 34 0 l27 19 38
-29 c22 -16 41 -28 42 -26 2 1 -2 23 -7 47 -9 38 -8 46 7 57 20 15 34 17 34 5z
m3290 -1 c0 -5 11 -8 23 -7 14 2 24 -2 24 -11 0 -7 -2 -11 -4 -9 -3 2 -17 -9
-33 -26 -16 -16 -34 -27 -40 -23 -8 5 -4 15 11 31 12 13 18 24 13 24 -6 0 -18
6 -28 13 -16 11 -15 13 8 15 14 1 26 -2 26 -7z m535 -21 c3 -6 -1 -7 -9 -4
-18 7 -21 14 -7 14 6 0 13 -4 16 -10z m-135 -7 c0 -5 -21 -21 -48 -37 -26 -17
-57 -36 -70 -44 -18 -12 -21 -12 -17 -1 5 14 113 89 128 89 4 0 7 -3 7 -7z
m-600 -38 c0 -13 -3 -31 -6 -40 -6 -15 -135 -105 -151 -105 -10 0 36 37 88 71
45 29 49 34 49 71 0 23 4 37 10 33 6 -3 10 -17 10 -30z m266 8 c-10 -10 -19 5
-10 18 6 11 8 11 12 0 2 -7 1 -15 -2 -18z m44 -50 c-18 -23 -19 -28 -6 -35 8
-5 13 -15 10 -23 -4 -8 -1 -15 6 -15 6 0 8 -5 5 -11 -5 -6 -11 -4 -19 7 -12
16 -13 16 -19 0 -4 -10 -12 -14 -18 -10 -7 4 -9 3 -6 -3 6 -9 64 -9 74 1 3 3
0 19 -6 37 -6 18 -11 36 -11 42 0 12 34 -32 43 -55 9 -26 -15 -88 -43 -108
-48 -34 -130 -11 -143 42 -5 18 -4 19 12 4 18 -16 52 -22 50 -8 -3 20 2 32 13
26 7 -5 8 -3 3 6 -6 10 -11 10 -20 -3 -15 -21 -34 -22 -41 -2 -4 10 -16 14
-32 13 -18 -2 -27 2 -30 14 -2 13 2 15 19 11 15 -4 20 -3 15 5 -4 8 -2 10 8 6
20 -8 39 29 23 46 -9 10 -9 11 2 5 10 -6 12 -2 6 14 -8 25 -6 25 30 7 33 -17
71 -4 82 28 6 18 7 19 11 4 2 -10 -6 -30 -18 -45z m-4348 10 c14 -16 34 -41
44 -57 17 -28 17 -29 -2 -43 -21 -15 -19 -16 -69 51 -14 19 -25 26 -37 21 -24
-10 -22 -29 8 -80 l25 -44 -21 -11 c-18 -10 -24 -8 -36 7 -7 10 -14 21 -14 26
0 16 -41 46 -55 41 -22 -9 -19 -39 9 -82 23 -37 23 -39 5 -50 -10 -7 -21 -12
-23 -12 -2 0 -23 30 -46 66 -39 63 -41 68 -24 78 11 6 21 11 24 11 3 0 16 10
30 23 13 12 32 22 43 22 10 0 30 14 44 30 31 37 62 38 95 3z m4618 -29 c-111
-72 -120 -77 -120 -65 0 14 162 119 185 120 12 0 -16 -23 -65 -55z m-3933 20
c3 -8 -2 -23 -11 -32 -15 -15 -17 -15 -32 0 -21 21 -11 48 16 48 11 0 23 -7
27 -16z m3524 -7 c-1 -12 -15 -9 -19 4 -3 6 1 10 8 8 6 -3 11 -8 11 -12z
m-321 -11 c0 -12 -66 -44 -75 -36 -8 6 -10 -2 -7 -25 4 -30 8 -35 32 -35 15 0
34 -8 43 -18 15 -17 15 -18 -3 -19 -11 -1 -23 3 -26 9 -5 7 -2 8 6 3 9 -5 11
-4 6 4 -5 7 -26 10 -57 8 -26 -2 -47 -1 -44 1 9 9 -21 30 -30 21 -7 -5 -11 1
-10 19 0 16 6 26 13 24 7 -1 20 4 27 12 13 12 9 14 -26 11 -23 -1 -45 -9 -50
-16 -7 -12 -9 -11 -9 1 -1 13 -2 13 -13 -1 -7 -9 -22 -21 -34 -27 -42 -23 -36
-12 11 22 41 29 55 34 95 31 25 -1 58 -6 73 -10 18 -5 34 -2 50 9 23 17 28 19
28 12z m-3141 -83 c41 -62 42 -67 25 -80 -10 -7 -20 -13 -23 -13 -3 0 -25 30
-47 67 -38 61 -40 68 -25 80 9 7 18 12 21 12 3 1 25 -29 49 -66z m-113 20 c16
2 19 -4 19 -34 0 -42 21 -72 45 -64 25 8 36 -26 14 -42 -30 -22 -52 -15 -85
27 -18 22 -35 37 -40 35 -23 -15 -33 74 -10 92 13 10 18 9 27 -2 5 -7 19 -13
30 -12z m3414 10 c-1 -12 -121 -84 -133 -80 -5 1 19 22 54 44 66 42 79 49 79
36z m-354 -27 c16 -16 19 -52 5 -60 -5 -4 -16 -3 -25 0 -11 4 -13 11 -6 30 11
27 10 27 -24 14 -14 -5 -34 -6 -43 -3 -14 6 -9 10 22 19 53 16 54 16 71 0z
m149 -4 c-3 -3 -11 0 -18 7 -9 10 -8 11 6 5 10 -3 15 -9 12 -12z m-398 -35 c0
-7 27 -56 61 -109 34 -52 62 -99 62 -104 0 -30 23 -84 35 -84 18 0 19 12 3 28
-6 6 -12 35 -12 64 -1 29 -4 55 -7 58 -14 11 -20 50 -9 50 8 0 10 9 6 24 -4
16 0 28 11 37 12 10 14 10 9 2 -4 -7 -2 -13 3 -13 6 0 11 -8 11 -17 0 -16 1
-15 13 1 8 11 19 15 30 10 19 -7 23 -29 5 -40 -6 -4 -8 -3 -4 4 4 7 -3 7 -24
-1 -35 -13 -39 -27 -9 -27 11 0 18 -4 14 -10 -3 -5 -12 -7 -20 -4 -9 4 -14 -1
-13 -13 0 -10 -3 -30 -7 -45 -5 -21 -3 -29 9 -34 9 -3 16 -14 16 -24 0 -12 7
-18 19 -17 13 1 17 7 14 22 -2 11 2 7 10 -10 10 -21 10 -32 3 -35 -6 -3 -11
-12 -11 -20 0 -9 -9 -15 -23 -14 -12 0 -21 -4 -19 -10 3 -6 10 -10 16 -8 7 1
10 -2 7 -7 -10 -16 14 -24 31 -10 13 11 17 10 29 -6 15 -20 15 -87 0 -78 -5 3
-7 0 -4 -8 3 -8 15 -19 28 -26 13 -6 41 -40 64 -75 l40 -63 14 58 c9 35 19 57
28 57 17 0 18 12 2 28 -19 19 6 59 59 93 l48 30 23 -26 c12 -14 22 -21 22 -16
0 19 18 12 25 -10 4 -11 9 -18 12 -16 2 3 -3 19 -12 36 -9 17 -11 31 -5 31 5
0 10 7 10 16 0 12 6 15 21 11 17 -4 19 -3 10 6 -6 6 -11 14 -11 19 0 10 102
78 118 78 7 0 65 -80 128 -177 64 -98 143 -218 175 -268 38 -58 59 -101 59
-120 0 -24 2 -27 11 -15 9 13 10 13 6 -1 -3 -10 9 -30 34 -54 21 -20 39 -41
39 -47 0 -6 -22 13 -50 41 -28 29 -50 61 -50 73 0 12 -12 42 -27 67 -26 44
-310 481 -318 490 -2 2 -27 -11 -55 -29 -47 -30 -50 -35 -44 -63 4 -22 3 -28
-6 -22 -19 12 -30 -16 -23 -59 5 -31 3 -37 -8 -32 -8 3 -21 9 -30 12 -9 3 -22
17 -28 30 -13 30 -27 30 -73 -1 -45 -30 -60 -55 -47 -76 13 -22 11 -49 -5 -49
-15 0 -19 -10 -31 -67 -4 -18 -12 -33 -18 -33 -7 0 -29 26 -49 58 -21 32 -52
68 -69 81 -17 13 -38 39 -46 59 -8 21 -23 45 -33 54 -40 37 -69 85 -76 123 -3
22 -30 76 -59 120 -65 100 -76 121 -68 129 9 8 10 8 10 -7z m167 -4 c3 -8 10
-11 16 -8 6 4 7 -1 3 -11 -6 -15 -7 -15 -15 1 -9 15 -12 15 -34 0 -13 -8 -24
-11 -24 -6 0 6 -6 8 -13 5 -7 -2 -24 0 -38 5 -20 8 -18 9 16 6 44 -3 64 3 45
15 -7 5 -2 8 13 8 14 0 28 -7 31 -15z m930 -63 c17 -73 21 -165 8 -156 -5 3
-9 26 -11 53 -1 26 -7 68 -13 93 -15 65 -17 91 -8 85 5 -3 16 -36 24 -75z
m-4830 29 c14 -11 26 -23 26 -27 0 -4 -21 -20 -46 -36 -27 -17 -42 -32 -36
-38 11 -11 42 0 42 14 0 11 30 37 43 38 18 0 5 -50 -19 -74 -38 -37 -84 -36
-118 5 -34 40 -33 74 3 110 35 34 68 37 105 8z m868 -7 c55 -50 32 -129 -44
-147 -23 -6 -34 -1 -63 28 -44 44 -44 70 -1 113 41 41 66 43 108 6z m3330 -10
c-27 -4 -37 2 -27 17 4 8 13 7 28 -1 l22 -13 -23 -3z m-66 -9 c18 -19 23 -33
18 -48 -9 -29 -6 -79 6 -83 6 -2 8 -8 4 -13 -3 -5 2 -12 10 -15 9 -3 16 -14
16 -25 0 -21 -68 -71 -84 -61 -6 3 -18 5 -27 4 -16 -3 -73 57 -64 67 3 2 14
-8 26 -22 23 -30 42 -36 32 -10 -5 12 -3 14 7 8 9 -5 11 -4 6 3 -7 11 6 17 27
13 5 -1 5 3 2 9 -4 7 -1 10 6 8 15 -3 19 3 18 30 0 10 -3 12 -6 4 -2 -6 -10
-9 -15 -6 -7 5 -8 2 -3 -6 6 -10 4 -12 -8 -7 -11 4 -14 2 -10 -9 3 -7 1 -14
-3 -15 -5 0 -19 -2 -31 -5 -21 -3 -28 5 -24 28 0 4 -10 3 -24 -2 -13 -5 -26
-6 -28 -2 -9 17 -17 46 -11 40 15 -16 44 13 44 44 0 28 -2 30 -29 25 -27 -6
-28 -5 -17 18 6 15 19 24 31 23 11 0 29 3 40 7 16 7 18 6 8 -6 -20 -20 -15
-36 11 -43 51 -13 79 21 46 54 -11 11 -15 20 -10 20 6 0 22 -12 36 -27z
m-4274 -74 l57 -90 -27 -12 c-15 -6 -30 -17 -34 -23 -4 -6 -21 -17 -38 -24
-28 -11 -34 -11 -58 7 -63 46 -65 114 -5 144 31 15 31 17 16 39 -15 21 -15 24
2 36 10 8 21 14 24 14 3 0 32 -41 63 -91z m4391 35 c-4 14 -3 17 6 12 6 -4 11
-13 10 -19 -3 -26 2 -37 15 -37 13 0 41 -58 32 -67 -11 -11 -45 20 -51 46 -3
16 -15 37 -25 46 -11 10 -17 22 -14 27 3 5 12 1 20 -9 13 -17 14 -17 7 1z
m197 11 c0 -11 -89 -64 -94 -56 -3 5 13 21 37 35 41 25 57 31 57 21z m-3715
-57 c14 -16 25 -42 25 -57 0 -29 -32 -67 -63 -73 -16 -3 -15 -7 8 -40 24 -36
25 -37 6 -48 -11 -5 -22 -10 -24 -10 -3 0 -33 43 -67 96 -50 78 -59 98 -49
110 7 8 17 13 24 10 6 -2 17 5 24 15 14 24 48 38 73 31 10 -2 29 -18 43 -34z
m4220 -40 l27 -48 -24 -9 c-27 -10 -39 -4 -18 9 12 7 12 13 0 37 l-14 28 -3
-25 c-16 -119 -29 -121 -25 -4 4 97 7 98 57 12z m-440 52 c4 -6 3 -9 -2 -8 -5
2 -32 -12 -61 -31 -70 -44 -79 -33 -10 13 57 39 64 41 73 26z m-568 -22 c-3
-8 -6 -5 -6 6 -1 11 2 17 5 13 3 -3 4 -12 1 -19z m842 -36 c-1 -83 -18 -95
-18 -14 -1 46 3 71 9 67 6 -3 10 -27 9 -53z m-610 24 c8 -13 12 -28 10 -34 -2
-5 -11 6 -20 24 -19 38 -9 47 10 10z m521 -19 c33 -19 57 -36 54 -40 -8 -8
-96 37 -113 57 -19 23 -8 20 59 -17z m-4174 -1 c19 -15 19 -15 -1 -30 -11 -8
-27 -13 -37 -10 -9 3 -19 0 -23 -6 -13 -21 9 -29 50 -20 52 12 85 -8 85 -50 0
-55 -66 -94 -118 -70 -26 11 -26 12 -7 26 10 8 31 14 47 14 19 0 28 5 28 16 0
14 -8 15 -53 10 -45 -6 -56 -4 -71 13 -27 30 -17 71 23 98 40 27 50 28 77 9z
m4048 -2 c3 -8 2 -12 -4 -9 -6 3 -10 10 -10 16 0 14 7 11 14 -7z m-194 -24 c0
-5 -2 -10 -4 -10 -3 0 -8 5 -11 10 -3 6 -1 10 4 10 6 0 11 -4 11 -10z m-65
-20 c10 -11 15 -20 10 -20 -4 0 -2 -7 5 -15 8 -10 9 -15 2 -15 -6 0 -9 -7 -5
-16 5 -14 3 -15 -15 -5 -35 19 -56 68 -24 57 9 -4 6 3 -8 14 -24 19 -24 20 -4
20 11 0 29 -9 39 -20z m361 -14 c38 -18 84 -37 102 -41 17 -3 32 -11 32 -16 0
-20 -146 36 -195 75 -31 24 -13 19 61 -18z m-739 2 c-3 -8 -6 -5 -6 6 -1 11 2
17 5 13 3 -3 4 -12 1 -19z m-4287 -3 c12 -15 7 -19 -55 -40 -13 -5 -15 -9 -7
-12 7 -3 25 0 41 5 36 13 71 -8 71 -43 0 -29 -47 -65 -83 -65 -49 0 -44 41 4
44 12 0 24 7 27 14 4 14 -8 15 -41 3 -32 -12 -67 11 -67 44 0 47 81 84 110 50z
m2262 -17 c51 -28 104 -94 119 -151 21 -77 -7 -172 -68 -229 -41 -38 -2552
-1662 -2592 -1676 -78 -27 -166 -10 -229 44 -104 89 -117 238 -30 337 35 39
2546 1670 2608 1694 50 19 140 10 192 -19z m2968 22 c0 -5 -15 -10 -34 -10
-19 0 -38 5 -41 10 -4 6 10 10 34 10 23 0 41 -4 41 -10z m-50 -85 c-16 -43
-23 -22 -8 27 9 29 14 37 16 22 2 -11 -2 -33 -8 -49z m224 -15 c21 -34 36 -64
33 -66 -3 -3 -21 19 -40 49 -20 30 -46 59 -59 63 -22 7 -22 7 -3 14 26 10 26
10 69 -60z m-1027 38 c-3 -8 -6 -5 -6 6 -1 11 2 17 5 13 3 -3 4 -12 1 -19z
m274 -5 c19 -21 20 -25 6 -20 -10 4 -25 7 -32 7 -8 0 -13 9 -12 20 2 26 9 25
38 -7z m371 -7 c26 -10 45 -22 42 -27 -3 -5 -14 -4 -25 2 -29 15 -31 8 -10
-25 l19 -29 28 43 c16 23 30 37 32 31 4 -13 -46 -91 -59 -91 -5 0 -27 28 -50
61 -23 34 -37 60 -33 58 5 -2 30 -12 56 -23z m258 9 c-42 -16 -80 -19 -80 -6
0 6 17 12 38 14 69 7 77 6 42 -8z m-700 1 c0 -2 -25 -22 -55 -44 -53 -40 -69
-43 -42 -10 19 26 97 69 97 54z m-130 -10 c0 -3 -4 -8 -10 -11 -5 -3 -10 -1
-10 4 0 6 5 11 10 11 6 0 10 -2 10 -4z m875 -76 l7 -25 -21 23 c-12 12 -19 27
-16 32 3 6 2 10 -4 10 -8 0 -8 17 -1 40 2 6 25 -47 35 -80z m35 52 c0 -15 -2
-15 -10 -2 -13 20 -13 33 0 25 6 -3 10 -14 10 -23z m-5471 -6 l22 -23 -45 -29
c-49 -31 -57 -44 -27 -44 10 0 26 11 35 25 20 30 46 33 46 4 0 -30 -53 -79
-85 -79 -38 0 -85 50 -85 90 0 70 91 107 139 56z m836 -2 c35 -23 48 -69 30
-105 -31 -58 -98 -67 -139 -18 -40 47 -32 95 22 123 35 20 57 20 87 0z m4444
-20 c10 -9 -6 -12 -31 -7 -16 3 -28 9 -28 14 0 8 48 2 59 -7z m-729 -57 c0 -3
-10 -3 -22 0 -23 4 -23 4 -3 -12 l20 -17 -20 4 c-12 2 -20 11 -20 23 0 11 -3
25 -7 31 -4 6 -5 14 -2 17 5 5 54 -36 54 -46z m-4710 23 c8 -14 7 -25 -2 -40
-11 -18 -10 -27 10 -63 22 -40 22 -42 5 -55 -21 -15 -35 -1 -80 75 -21 36 -23
46 -12 59 7 8 17 13 24 10 6 -2 17 5 23 15 15 24 19 24 32 -1z m5396 -21 c-14
-17 -26 -36 -26 -42 0 -7 16 -36 36 -65 19 -29 34 -58 32 -64 -2 -6 -25 20
-50 57 l-46 69 32 38 c17 21 35 38 39 38 5 0 -3 -14 -17 -31z m238 7 c-21 -15
-30 -14 -19 3 3 6 14 11 23 11 13 0 13 -2 -4 -14z m-4797 -23 c11 -10 32 -37
46 -60 26 -41 26 -43 8 -53 -27 -14 -25 -15 -55 30 -27 41 -62 53 -72 26 -3
-8 6 -32 20 -55 31 -48 31 -50 9 -67 -16 -11 -23 -5 -60 53 -24 37 -43 70 -43
74 0 7 17 16 33 17 4 1 22 12 38 26 36 31 50 32 76 9z m4763 6 c0 -5 -5 -7
-11 -4 -6 4 -17 -1 -24 -11 -12 -16 -14 -16 -15 -3 0 9 3 19 7 22 10 11 43 8
43 -4z m-5675 -86 c41 -62 44 -69 28 -80 -9 -7 -23 -13 -30 -13 -7 0 -13 -4
-13 -10 0 -5 -13 -16 -30 -25 -27 -14 -33 -14 -60 0 -42 22 -67 76 -52 110 6
14 24 31 39 38 16 6 37 20 47 29 11 10 21 18 23 18 1 0 23 -30 48 -67z m5615
57 c0 -5 -6 -10 -14 -10 -8 0 -17 -8 -19 -17 -4 -14 -5 -13 -6 4 -1 19 10 30
32 32 4 1 7 -3 7 -9z m-112 -29 c17 -16 34 -25 37 -20 8 12 25 11 25 -2 0 -5
-4 -8 -9 -4 -5 3 -11 -2 -13 -10 -2 -11 -15 -5 -48 25 -25 21 -40 39 -35 40 6
0 25 -13 43 -29z m188 -45 c2 -12 1 -13 -3 -1 -2 8 -9 15 -14 15 -6 0 -5 -8 1
-20 6 -11 16 -20 22 -20 7 0 6 -5 -2 -15 -15 -18 1 -20 19 -2 10 10 11 9 6 -5
-6 -15 -2 -17 30 -15 38 3 57 20 48 43 -3 8 2 11 14 10 10 -2 20 -15 24 -32 3
-16 13 -46 23 -68 18 -43 23 -92 6 -66 -7 10 -8 4 -4 -20 5 -31 2 -37 -23 -51
-46 -26 -107 -14 -138 27 -29 38 -26 42 10 18 13 -9 28 -13 34 -10 5 3 12 0
15 -6 3 -7 4 -4 3 7 -3 26 -18 37 -34 23 -9 -7 -14 -6 -19 5 -3 9 -13 13 -24
10 -11 -3 -26 -3 -35 0 -20 8 -8 37 15 37 10 0 24 7 31 16 11 14 11 18 -4 29
-9 7 -17 20 -17 29 0 10 -4 15 -9 12 -13 -8 -20 58 -7 66 16 11 31 4 32 -16z
m131 18 c-3 -3 -12 -4 -19 -1 -8 3 -5 6 6 6 11 1 17 -2 13 -5z m-5079 -89 l42
-65 -27 -13 c-15 -6 -37 -22 -50 -34 -29 -30 -54 -29 -91 2 -57 48 -51 114 13
141 19 7 36 18 40 24 13 21 31 7 73 -55z m5042 45 c0 -5 -4 -10 -10 -10 -5 0
-10 5 -10 10 0 6 5 10 10 10 6 0 10 -4 10 -10z m-6090 -35 l13 -24 29 24 c16
14 34 25 39 25 23 0 50 -23 79 -66 26 -36 29 -48 20 -59 -20 -24 -33 -18 -58
25 -17 30 -29 40 -47 40 -33 0 -33 -29 0 -78 24 -34 24 -38 8 -50 -9 -7 -21
-11 -25 -10 -5 2 -32 41 -62 88 -49 76 -53 85 -38 97 23 17 27 16 42 -12z
m-25 -100 c30 -47 55 -89 55 -93 0 -4 -8 -12 -18 -18 -16 -10 -25 0 -77 78
-56 86 -58 91 -40 104 10 8 20 14 22 14 2 0 28 -38 58 -85z m-115 40 c10 -12
10 -18 0 -30 -16 -19 -39 -19 -46 0 -6 15 11 45 26 45 4 0 13 -7 20 -15z m998
-9 c21 -11 22 -14 7 -26 -8 -7 -25 -13 -38 -14 -15 -1 -23 -8 -25 -24 -6 -43
41 -72 55 -34 7 18 32 41 46 42 11 0 9 -58 -3 -65 -17 -11 -11 -22 11 -21 12
1 26 -7 33 -17 9 -15 6 -22 -19 -43 -16 -13 -33 -24 -37 -24 -15 0 -8 29 10
39 15 9 15 10 -5 11 -12 0 -25 5 -28 10 -3 6 -17 7 -30 4 -28 -7 -81 38 -90
76 -7 29 24 76 59 90 28 11 27 11 54 -4z m5549 8 c-3 -3 -12 -4 -19 -1 -8 3
-5 6 6 6 11 1 17 -2 13 -5z m118 -14 c3 -5 -23 -28 -59 -51 -48 -30 -66 -47
-66 -63 0 -39 -12 -67 -26 -62 -9 3 -16 -4 -20 -19 -9 -36 -33 -53 -48 -34 -6
9 -21 21 -34 28 -19 10 -28 9 -56 -9 -31 -18 -34 -24 -33 -68 1 -49 -24 -102
-49 -102 -7 0 -19 8 -26 19 -7 10 -29 20 -48 23 -29 5 -46 -1 -97 -33 -72 -45
-83 -47 -82 -16 0 18 2 19 7 5 6 -16 14 -13 67 22 65 43 122 53 145 25 7 -8
16 -12 21 -9 5 3 9 1 9 -5 0 -6 7 -8 15 -5 8 4 12 10 9 15 -3 5 0 9 5 9 7 0
11 22 11 53 0 48 3 54 35 75 42 27 46 27 89 3 37 -21 46 -19 46 14 0 12 7 30
16 41 13 16 15 16 10 2 -3 -10 -2 -18 3 -18 5 0 11 17 15 38 5 32 14 42 68 77
62 40 62 40 33 46 l-30 7 32 1 c17 0 35 -3 38 -9z m-6671 -118 c25 -40 46 -77
46 -82 0 -5 -8 -14 -18 -19 -15 -8 -23 -2 -46 35 -15 24 -29 44 -31 44 -1 0 3
-24 10 -54 11 -47 11 -56 -3 -70 -14 -14 -20 -12 -66 22 -44 32 -49 34 -35 12
46 -72 46 -70 24 -82 -11 -7 -21 -11 -23 -10 -8 4 -102 154 -102 163 0 5 11
14 24 21 22 9 31 6 76 -27 28 -21 53 -35 56 -32 3 3 0 33 -7 68 -12 60 -11 63
11 81 27 22 23 25 84 -70z m76 22 c33 -52 39 -68 28 -75 -25 -16 -36 -9 -76
54 -36 55 -39 63 -24 75 9 6 19 12 23 12 4 0 26 -30 49 -66z m5987 14 c-2 -13
-4 -5 -4 17 -1 22 1 32 4 23 2 -10 2 -28 0 -40z m-5168 -44 c39 -62 41 -67 24
-79 -10 -7 -21 -12 -24 -9 -3 2 -17 -8 -29 -21 -31 -33 -65 -31 -101 4 -51 52
-34 131 28 131 13 0 22 4 18 9 -5 9 20 30 36 31 4 0 25 -30 48 -66z m5518 9
c-3 -10 -5 -4 -5 12 0 17 2 24 5 18 2 -7 2 -21 0 -30z m-52 -13 c3 -5 -8 -16
-24 -25 -44 -22 -50 -18 -16 10 35 29 32 28 40 15z m-5645 -41 c9 -16 8 -25
-6 -40 -16 -18 -16 -21 11 -61 26 -39 27 -42 9 -55 -10 -7 -20 -13 -23 -13 -3
0 -25 30 -48 67 -40 66 -41 68 -21 82 17 12 21 12 29 0 7 -12 9 -11 9 2 0 13
18 39 27 39 1 0 7 -9 13 -21z m-126 -52 c16 -12 16 -14 2 -26 -9 -8 -26 -15
-39 -16 -12 -1 -25 -3 -29 -4 -14 -2 -29 -42 -23 -62 4 -11 17 -27 31 -35 22
-15 26 -15 49 0 14 9 25 23 25 31 0 18 -5 19 -30 3 -17 -11 -22 -10 -30 2 -10
15 8 35 58 61 19 11 24 10 37 -7 24 -32 18 -79 -15 -112 -16 -16 -41 -33 -55
-36 -55 -14 -125 47 -125 108 0 71 93 130 144 93z m5473 -69 c-3 -8 -6 -5 -6
6 -1 11 2 17 5 13 3 -3 4 -12 1 -19z m-5654 -116 c24 -22 22 -28 -23 -58 -39
-26 -51 -44 -29 -44 6 0 24 14 41 30 50 51 69 13 20 -42 -22 -23 -37 -31 -62
-31 -68 0 -107 95 -57 140 39 36 73 37 110 5z m-143 -101 c51 -79 53 -84 34
-94 -10 -6 -21 -12 -24 -12 -3 0 -16 -10 -30 -22 -32 -31 -66 -29 -101 6 -49
50 -32 131 28 131 l24 0 -18 31 c-17 30 -17 31 1 45 23 16 17 22 86 -85z
m2466 -137 c-4 -13 -1 -33 6 -44 9 -14 10 -22 1 -31 -8 -8 -18 -1 -39 31 l-28
42 24 18 c30 22 44 16 36 -16z m-47 -50 c25 -41 26 -54 7 -54 -8 0 -16 -7 -20
-15 -8 -21 -50 -19 -70 4 -25 27 -16 61 19 82 41 24 40 24 64 -17z m-79 -103
c0 -30 -23 -15 -55 35 -28 43 -33 59 -24 65 9 5 24 -8 46 -41 18 -27 33 -54
33 -59z m-57 10 c23 -34 24 -41 12 -51 -8 -7 -15 -9 -15 -4 0 4 -6 0 -13 -11
-19 -26 -58 -13 -81 26 -15 26 -16 33 -5 40 9 5 19 -1 32 -21 11 -17 23 -30
27 -30 19 0 21 22 5 46 -15 23 -13 44 4 44 5 0 20 -18 34 -39z m-109 -46 c41
-63 41 -61 21 -68 -20 -8 -90 104 -72 115 6 4 12 8 13 8 1 0 18 -25 38 -55z
m-35 -29 c10 -12 7 -18 -14 -32 -14 -9 -23 -19 -20 -22 3 -3 14 3 25 13 11 10
23 15 27 11 9 -9 -8 -36 -33 -53 -18 -12 -24 -11 -46 7 -22 17 -29 18 -52 7
-29 -13 -34 -34 -11 -43 9 -4 23 4 35 17 19 23 19 23 20 3 0 -28 -33 -56 -62
-52 -14 2 -28 15 -37 32 -13 28 -12 31 14 53 17 15 34 22 46 18 12 -4 19 -2
19 6 0 39 65 64 89 35z m-221 -168 c16 -24 18 -36 10 -46 -9 -10 -15 -7 -31
17 -18 30 -47 42 -47 21 0 -6 7 -24 15 -40 20 -40 -1 -53 -27 -17 -20 27 -48
36 -48 17 0 -6 7 -22 16 -36 13 -19 14 -28 6 -36 -13 -13 -27 1 -53 50 -12 21
-10 26 17 47 16 13 34 23 40 21 6 -2 16 5 22 15 19 30 57 24 80 -13z m991 -42
c9 -11 5 -19 -20 -37 -18 -13 -27 -25 -21 -27 7 -2 21 7 31 20 23 28 38 17 23
-17 -21 -46 -76 -43 -103 7 -24 46 57 94 90 54z m-100 -61 c25 -42 31 -59 23
-67 -14 -14 -11 -17 -55 53 -20 31 -33 59 -30 63 15 15 31 2 62 -49z m-1057
18 c43 -39 -4 -109 -57 -85 -33 15 -43 57 -20 82 22 24 52 26 77 3z m1027 -63
c40 -66 40 -95 0 -116 -29 -14 -33 -14 -47 0 -15 14 -13 16 16 22 18 4 32 13
32 20 0 18 -5 18 -34 -1 -21 -14 -25 -14 -50 6 -32 25 -32 66 -1 83 10 6 25
17 33 24 7 6 15 12 17 12 2 0 17 -23 34 -50z m-1124 10 c3 -5 -6 -12 -20 -16
-28 -7 -34 -31 -10 -41 9 -3 22 2 30 13 17 23 29 13 20 -16 -14 -44 -72 -43
-95 1 -9 16 -8 26 5 45 16 24 58 33 70 14z m1014 -64 c27 -29 22 -59 -14 -82
-17 -11 -29 -13 -42 -6 -15 9 -19 5 -28 -21 -13 -41 -56 -58 -83 -33 -19 16
-19 16 -15 -8 6 -30 -35 -76 -67 -76 -28 0 -70 43 -70 71 0 32 38 69 71 69 41
0 45 -18 7 -28 -28 -7 -33 -13 -33 -38 0 -26 3 -29 30 -29 22 0 31 5 34 20 3
17 1 17 -12 6 -9 -7 -21 -9 -28 -5 -13 8 26 43 49 44 6 0 12 11 12 25 0 35 42
62 75 47 20 -9 23 -9 18 4 -7 18 34 64 57 64 9 0 27 -11 39 -24z m-1126 -14
c15 -17 14 -19 -15 -37 -19 -11 -27 -20 -19 -23 7 -2 18 4 25 13 18 25 36 16
25 -12 -11 -31 -54 -40 -79 -18 -24 22 -26 52 -3 77 21 23 45 23 66 0z m-83
-68 c20 -35 21 -72 1 -60 -5 3 -11 -1 -15 -9 -10 -27 -52 -18 -75 17 -28 45
-9 63 24 23 18 -23 26 -27 36 -18 9 9 8 17 -5 38 -16 24 -14 45 4 45 4 0 18
-16 30 -36z m-94 -70 c23 -29 25 -37 13 -45 -10 -6 -19 -1 -32 16 -19 25 -47
34 -47 15 0 -6 8 -22 17 -36 14 -22 14 -27 3 -34 -10 -6 -22 3 -42 32 -27 42
-28 58 -4 58 8 0 19 7 26 15 19 23 37 18 66 -21z m-140 5 c10 -17 -13 -36 -27
-22 -12 12 -4 33 11 33 5 0 12 -5 16 -11z m42 -70 c20 -33 20 -49 2 -49 -4 0
-19 17 -33 39 -19 28 -23 41 -14 50 13 13 16 10 45 -40z m-67 21 c6 0 9 -10 7
-22 -2 -16 4 -26 20 -33 26 -11 29 -33 6 -42 -16 -6 -75 47 -87 79 -6 18 9 29
31 22 8 -2 18 -4 23 -4z m1135 -35 c21 -28 24 -39 15 -48 -10 -9 -17 -6 -33
16 -19 27 -48 37 -48 17 0 -6 7 -24 15 -40 21 -40 -1 -52 -30 -17 -37 48 -63
24 -30 -27 14 -21 14 -24 1 -29 -10 -4 -25 8 -44 35 l-29 42 34 23 c19 13 39
23 46 23 7 0 18 9 25 20 18 30 48 24 78 -15z m-1167 -44 c12 -16 21 -34 21
-40 0 -20 -27 -11 -44 14 -9 14 -21 25 -26 25 -15 0 -12 -33 6 -58 14 -20 14
-23 -1 -28 -9 -4 -17 -5 -19 -3 -46 62 -56 89 -32 89 7 0 19 7 26 15 19 23 47
18 69 -14z m-101 -56 c23 -29 19 -61 -10 -76 -29 -15 -63 -3 -76 26 -11 23 -9
29 13 50 31 32 48 31 73 0z m1099 13 c30 -40 5 -98 -42 -98 -24 0 -55 33 -55
59 0 40 74 69 97 39z m-1222 -42 c19 -13 18 -15 -15 -23 -28 -7 -35 -14 -35
-34 0 -19 6 -25 28 -27 18 -2 27 1 27 11 0 16 29 32 39 22 11 -12 -25 -60 -52
-69 -22 -8 -31 -6 -52 14 -33 31 -33 72 1 99 32 25 34 25 59 7z m1119 -15 c3
-5 -8 -14 -24 -20 -34 -11 -37 -22 -15 -41 13 -11 18 -10 31 8 18 26 34 28 34
5 0 -23 -30 -53 -53 -53 -48 0 -73 56 -40 92 17 19 58 24 67 9z m-1282 -131
c31 -47 57 -92 57 -101 1 -18 -100 -89 -126 -89 -19 0 -133 164 -133 192 0 20
99 88 125 85 12 -1 40 -33 77 -87z m1174 35 c13 -21 15 -31 6 -50 -25 -55
-102 -35 -102 26 0 51 68 67 96 24z m-98 -61 c22 -34 23 -72 2 -59 -5 3 -10 2
-10 -4 0 -15 -36 -32 -54 -25 -8 3 -24 21 -35 39 -16 28 -17 36 -6 45 10 9 17
4 31 -19 18 -30 38 -39 48 -23 3 5 -3 22 -14 39 -10 17 -16 34 -13 37 14 13
29 4 51 -30z m4583 -34 c31 -48 37 -65 27 -71 -20 -13 -21 -13 -61 52 -31 49
-36 63 -26 75 14 17 9 22 60 -56z m-48 -31 c30 -48 36 -64 25 -70 -17 -11 -28
-11 -28 -1 0 5 -6 16 -13 25 -11 16 -14 16 -35 1 -22 -15 -22 -17 -7 -40 16
-25 13 -44 -8 -44 -15 0 -89 119 -81 131 9 15 25 10 43 -13 16 -19 20 -20 39
-6 20 13 20 16 6 36 -16 23 -12 42 9 42 7 0 29 -28 50 -61z m-4639 -2 c15 -19
26 -39 26 -45 0 -21 -27 -13 -44 13 -17 26 -46 34 -46 12 0 -7 7 -23 16 -35
14 -21 12 -42 -5 -42 -15 0 -65 84 -53 88 7 2 22 12 34 22 32 27 43 25 72 -13z
m-144 -7 c0 -19 -20 -27 -33 -13 -8 7 11 33 24 33 5 0 9 -9 9 -20z m44 -60
c25 -37 27 -60 7 -60 -13 0 -62 80 -56 90 11 18 22 11 49 -30z m-73 12 c8 2
14 -5 15 -17 2 -41 4 -45 24 -45 26 0 26 -27 0 -35 -40 -13 -110 86 -77 107 6
4 14 2 18 -3 3 -6 12 -9 20 -7z m4657 9 c17 -10 -3 -28 -38 -33 -17 -2 -26
-10 -28 -26 -7 -49 51 -73 67 -28 11 27 37 40 44 22 8 -20 -15 -59 -44 -75
-77 -43 -152 68 -85 126 28 23 61 29 84 14z"/>
<path d="M11014 9379 c-10 -17 23 -46 37 -32 7 7 9 19 6 27 -7 18 -33 21 -43
5z"/>
<path d="M10935 9351 c-3 -5 -1 -12 5 -16 12 -7 30 2 30 16 0 12 -27 12 -35 0z"/>
<path d="M10957 9324 c-9 -10 2 -24 19 -24 8 0 14 7 14 15 0 15 -21 21 -33 9z"/>
<path d="M11223 9284 c-9 -23 13 -40 32 -24 12 10 13 16 4 26 -15 18 -28 18
-36 -2z"/>
<path d="M10775 9220 c-8 -13 5 -13 25 0 13 8 13 10 -2 10 -9 0 -20 -4 -23
-10z"/>
<path d="M10572 9108 c5 -15 28 -18 29 -3 0 6 -7 12 -17 13 -10 3 -15 -1 -12
-10z"/>
<path d="M10925 9099 c-4 -6 -5 -13 -2 -16 7 -7 27 6 27 18 0 12 -17 12 -25
-2z"/>
<path d="M10939 9074 c-12 -14 -11 -16 5 -13 11 2 21 10 24 17 5 17 -13 15
-29 -4z"/>
<path d="M13261 8724 c0 -11 3 -14 6 -6 3 7 2 16 -1 19 -3 4 -6 -2 -5 -13z"/>
<path d="M13043 8488 c-24 -32 -26 -40 -5 -29 21 11 38 41 23 41 -5 0 -13 -6
-18 -12z"/>
<path d="M13386 8434 c-4 -9 -4 -19 -1 -23 8 -7 41 14 38 25 -4 17 -30 15 -37
-2z"/>
<path d="M13655 8430 c-3 -5 -1 -10 4 -10 6 0 11 5 11 10 0 6 -2 10 -4 10 -3
0 -8 -4 -11 -10z"/>
<path d="M13430 8415 c-11 -13 -10 -14 4 -9 9 3 16 10 16 15 0 13 -6 11 -20
-6z"/>
<path d="M13307 8389 c-20 -12 -23 -39 -4 -39 15 0 40 37 29 44 -4 2 -15 0
-25 -5z"/>
<path d="M13514 8325 c-16 -14 -35 -23 -43 -20 -16 6 -61 -32 -61 -52 0 -7 -5
-13 -10 -13 -28 0 -72 -63 -85 -119 -6 -30 -6 -31 29 -31 31 0 36 3 36 24 0
17 7 26 25 30 24 6 62 62 51 74 -3 3 -6 1 -6 -5 0 -10 -59 -37 -66 -31 -11 11
80 83 94 74 10 -6 40 24 67 67 22 34 7 35 -31 2z"/>
<path d="M10814 9029 c-10 -17 23 -46 38 -31 8 8 8 15 -2 27 -15 18 -26 19
-36 4z"/>
<path d="M11734 8786 c-9 -24 15 -58 39 -54 17 2 22 10 22 33 0 25 -4 30 -28
33 -17 2 -29 -2 -33 -12z"/>
<path d="M11237 8473 c-4 -3 -7 -12 -7 -20 0 -11 4 -11 20 -1 11 7 20 16 20
20 0 10 -24 10 -33 1z"/>
<path d="M11080 8365 c-6 -8 -9 -23 -5 -34 12 -38 65 -36 65 3 0 40 -36 60
-60 31z"/>
<path d="M10773 8165 c-9 -24 0 -25 27 -5 l25 20 -23 0 c-12 0 -25 -7 -29 -15z"/>
<path d="M11672 6960 c0 -14 2 -19 5 -12 2 6 2 18 0 25 -3 6 -5 1 -5 -13z"/>
<path d="M11670 6907 c0 -7 7 -22 15 -33 13 -17 14 -16 4 14 -11 33 -19 41
-19 19z"/>
<path d="M13373 7444 c-8 -21 13 -42 28 -27 13 13 5 43 -11 43 -6 0 -13 -7
-17 -16z"/>
<path d="M13623 7384 c-9 -23 13 -40 32 -24 12 10 13 16 4 26 -15 18 -28 18
-36 -2z"/>
<path d="M13561 7351 c-17 -11 -7 -41 13 -41 22 0 30 20 15 36 -9 8 -19 10
-28 5z"/>
<path d="M13175 7320 c-8 -13 5 -13 25 0 13 8 13 10 -2 10 -9 0 -20 -4 -23
-10z"/>
<path d="M13374 7229 c-10 -16 23 -46 36 -33 6 6 8 18 4 27 -7 19 -29 22 -40
6z"/>
<path d="M13217 7154 c-9 -9 23 -54 38 -54 18 0 27 30 14 46 -12 14 -41 19
-52 8z"/>
<path d="M12322 6767 c-14 -17 2 -42 22 -34 20 8 20 21 2 36 -10 8 -16 8 -24
-2z"/>
<path d="M12215 6720 c-8 -13 4 -32 16 -25 12 8 12 35 0 35 -6 0 -13 -4 -16
-10z"/>
<path d="M15116 6625 c-41 -15 -94 -60 -83 -71 3 -4 20 5 37 19 17 15 49 32
70 38 22 7 40 16 40 21 0 11 -18 9 -64 -7z"/>
<path d="M15110 6578 c-25 -13 -47 -31 -48 -42 -4 -16 0 -15 30 8 19 14 49 29
66 32 18 4 32 10 32 15 0 16 -34 10 -80 -13z"/>
<path d="M15135 6551 c-24 -10 -62 -51 -48 -51 6 0 16 7 23 15 7 8 18 15 24
15 6 1 25 7 41 15 29 13 29 13 5 14 -14 0 -34 -4 -45 -8z"/>
<path d="M12014 6569 c-3 -6 0 -17 7 -25 18 -17 44 -2 36 20 -7 18 -33 21 -43
5z"/>
<path d="M13697 6503 c-13 -12 -7 -50 9 -64 18 -15 47 -2 52 23 6 29 -42 61
-61 41z"/>
<path d="M12091 6396 c-14 -17 -7 -36 14 -36 22 0 29 20 13 36 -13 13 -16 13
-27 0z"/>
<path d="M11840 6237 c0 -19 16 -31 24 -18 3 5 -1 14 -9 21 -12 10 -15 10 -15
-3z"/>
<path d="M13064 6086 c-3 -8 -4 -23 -2 -33 5 -25 61 -25 66 0 7 37 -51 67 -64
33z"/>
<path d="M14273 6067 c-46 -29 -83 -56 -83 -60 0 -6 40 -71 65 -105 2 -2 42
22 89 53 l87 57 -21 31 c-12 18 -26 42 -32 55 -6 12 -14 22 -17 21 -3 0 -43
-24 -88 -52z m61 -26 c3 -5 -1 -12 -10 -15 -13 -5 -14 -9 -4 -21 15 -18 6 -45
-15 -45 -17 0 -21 25 -5 35 6 4 4 16 -6 31 -16 23 -16 24 9 24 14 0 28 -4 31
-9z"/>
<path d="M12840 5989 c0 -33 39 -81 63 -77 29 4 31 26 7 66 -24 39 -70 46 -70
11z"/>
<path d="M12586 5775 c-9 -26 12 -57 37 -53 17 2 22 10 22 33 0 25 -4 31 -26
33 -17 2 -29 -3 -33 -13z"/>
<path d="M12433 5674 c-9 -24 10 -49 38 -49 27 0 37 28 19 50 -17 20 -49 19
-57 -1z"/>
<path d="M13385 5565 c-33 -33 -32 -70 4 -106 33 -32 65 -37 99 -13 32 22 43
57 31 94 -20 55 -91 69 -134 25z"/>
<path d="M13465 5269 c-4 -6 -5 -13 -2 -16 7 -7 27 6 27 18 0 12 -17 12 -25
-2z"/>
<path d="M13480 5234 c0 -9 5 -14 12 -12 18 6 21 28 4 28 -9 0 -16 -7 -16 -16z"/>
<path d="M1655 4325 c-107 -14 -178 -36 -207 -62 -22 -20 -23 -66 -2 -98 20
-31 48 -32 175 -5 133 28 362 28 502 -1 137 -28 200 -47 277 -86 81 -41 121
-43 149 -7 65 82 -23 149 -294 225 -165 46 -405 59 -600 34z"/>
<path d="M1745 4060 c-223 -25 -288 -60 -254 -134 17 -37 38 -40 148 -17 121
25 272 27 396 6 114 -20 259 -69 295 -100 50 -43 123 -17 123 44 0 37 -14 50
-103 92 -93 44 -98 46 -175 68 -133 38 -311 55 -430 41z"/>
<path d="M1620 3781 c-94 -20 -100 -24 -100 -67 0 -45 32 -62 87 -46 190 55
436 34 616 -52 82 -40 109 -40 128 -4 17 32 -16 67 -103 110 -116 57 -228 78
-405 77 -96 -1 -174 -7 -223 -18z"/>
<path d="M3884 4033 c-12 -2 -38 -18 -58 -36 -72 -64 -73 -184 -1 -256 27 -27
43 -35 84 -39 95 -9 161 61 161 171 0 105 -88 181 -186 160z"/>
<path d="M4505 4033 c-31 -8 -83 -51 -99 -81 -25 -50 -27 -94 -9 -146 43 -119
198 -144 274 -43 20 27 24 44 24 102 0 58 -4 75 -23 101 -38 51 -112 80 -167
67z"/>
<path d="M15910 4091 c0 -30 11 -51 26 -51 17 0 18 24 4 51 -14 24 -30 25 -30
0z"/>
<path d="M16014 4073 c3 -21 6 -73 6 -115 l0 -78 43 1 c23 1 32 4 20 6 -13 2
-23 12 -23 21 -1 9 -3 56 -6 104 -6 85 -5 86 18 91 13 2 4 5 -21 6 l-44 1 7
-37z"/>
<path d="M15867 4093 c-4 -3 -7 -21 -7 -40 0 -32 17 -56 54 -78 10 -6 20 -27
23 -53 7 -52 27 -51 31 2 4 41 -19 86 -43 86 -18 0 -35 31 -35 64 0 25 -10 33
-23 19z"/>
<path d="M15748 4063 c6 -10 22 -62 38 -115 28 -97 38 -114 48 -80 8 25 -40
184 -60 199 -25 18 -36 16 -26 -4z"/>
<path d="M15710 4056 c-11 -14 -9 -31 15 -112 25 -84 45 -118 60 -102 3 3 -10
55 -28 117 -29 98 -35 111 -47 97z"/>
<path d="M15880 3922 c0 -11 9 -27 20 -37 19 -18 20 -17 20 3 0 31 -11 52 -26
52 -8 0 -14 -8 -14 -18z"/>
<path d="M16149 3930 c-1 -5 -1 -17 -1 -25 0 -28 2 -33 17 -39 12 -4 15 3 15
34 0 29 -4 40 -15 40 -8 0 -16 -4 -16 -10z"/>
<path d="M15920 3840 c-8 -5 -10 -10 -5 -10 6 0 17 5 25 10 8 5 11 10 5 10 -5
0 -17 -5 -25 -10z"/>
<path d="M16055 3840 c17 -4 44 -8 60 -8 25 0 24 2 -10 9 -51 10 -92 10 -50
-1z"/>
<path d="M16160 3830 c-13 -8 -12 -10 3 -10 9 0 17 5 17 10 0 12 -1 12 -20 0z"/>
<path d="M15778 3803 c7 -3 16 -2 19 1 4 3 -2 6 -13 5 -11 0 -14 -3 -6 -6z"/>
<path d="M15720 3790 c-18 -12 -2 -12 25 0 13 6 15 9 5 9 -8 0 -22 -4 -30 -9z"/>
<path d="M6397 4093 c-14 -13 -6 -33 12 -33 25 0 38 20 20 31 -17 11 -24 11
-32 2z"/>
<path d="M15249 4012 c6 -12 16 -24 22 -28 8 -4 8 -1 0 14 -6 12 -16 24 -22
28 -8 4 -8 1 0 -14z"/>
<path d="M15124 3988 l-19 -23 23 19 c21 18 27 26 19 26 -2 0 -12 -10 -23 -22z"/>
<path d="M15176 3992 c-3 -5 5 -19 17 -33 12 -14 18 -18 13 -9 -6 8 22 -15 60
-52 68 -67 87 -78 99 -58 6 9 -70 130 -81 130 -3 0 10 -21 28 -47 l32 -48 -69
63 c-67 60 -88 71 -99 54z"/>
<path d="M15374 3979 c-8 -14 18 -31 30 -19 9 9 0 30 -14 30 -5 0 -12 -5 -16
-11z"/>
<path d="M15262 3856 c24 -35 45 -63 46 -61 4 4 -77 125 -83 125 -3 0 14 -29
37 -64z"/>
<path d="M15160 3825 c0 -8 7 -15 15 -15 8 0 15 7 15 15 0 8 -7 15 -15 15 -8
0 -15 -7 -15 -15z"/>
<path d="M15005 3678 l-40 -43 43 40 c23 21 42 40 42 42 0 8 -9 0 -45 -39z"/>
<path d="M15045 3681 c-8 -15 46 -54 58 -42 7 7 4 17 -8 31 -19 21 -40 26 -50
11z"/>
<path d="M14960 3537 c0 -3 25 -26 56 -51 31 -26 53 -46 50 -46 -4 0 -42 18
-85 40 -62 31 -81 37 -90 27 -7 -10 0 -20 27 -42 20 -16 30 -21 23 -11 -10 11
17 2 72 -26 70 -34 90 -40 96 -29 9 14 -1 25 -101 105 -27 21 -48 36 -48 33z"/>
<path d="M15005 3396 c28 -25 54 -46 60 -46 11 0 8 2 -60 54 l-50 38 50 -46z"/>
<path d="M15165 3422 c-20 -17 -79 -92 -72 -92 2 0 25 25 51 55 50 58 54 66
21 37z"/>
<path d="M14816 3384 c-4 -9 -5 -18 -4 -19 2 -1 45 -28 97 -59 62 -38 97 -54
103 -48 15 15 5 26 -74 72 -40 24 -83 50 -94 57 -19 12 -22 12 -28 -3z"/>
<path d="M14782 3328 c-9 -9 11 -25 89 -72 98 -58 102 -59 116 -40 12 17 12
19 -4 23 -10 2 -54 25 -99 52 -45 27 -83 49 -86 49 -2 0 -9 -5 -16 -12z"/>
<path d="M15015 3229 c-4 -6 -5 -12 -2 -15 2 -3 7 2 10 11 7 17 1 20 -8 4z"/>
<path d="M14732 3198 c-15 -20 -22 -52 -14 -66 9 -13 164 -82 186 -82 7 0 17
5 24 12 9 9 -13 22 -93 56 -58 24 -105 49 -105 54 0 10 17 8 51 -6 10 -5 19
-1 23 9 4 11 -2 19 -20 25 -33 13 -40 13 -52 -2z"/>
<path d="M14856 3153 c-8 -19 -11 -16 42 -36 48 -19 52 -20 52 -9 0 16 -18 32
-52 46 -33 14 -37 14 -42 -1z"/>
<path d="M14951 3044 c0 -11 3 -14 6 -6 3 7 2 16 -1 19 -3 4 -6 -2 -5 -13z"/>
<path d="M10860 3421 c-102 -33 -208 -102 -278 -182 -35 -40 -40 -64 -16 -73
11 -4 36 14 80 58 69 69 166 124 267 152 59 16 82 39 56 55 -20 12 -46 10
-109 -10z"/>
<path d="M10910 3311 c-68 -22 -111 -44 -173 -88 -59 -44 -100 -95 -91 -117
10 -27 30 -18 87 38 56 56 134 99 215 119 50 13 67 38 35 55 -12 7 -35 5 -73
-7z"/>
<path d="M10923 3191 c-91 -33 -188 -112 -181 -148 5 -29 31 -21 82 24 30 27
74 52 122 70 61 23 74 32 72 48 -4 27 -32 29 -95 6z"/>
<path d="M15540 3482 c0 -20 26 -41 39 -33 12 8 12 12 2 25 -14 17 -41 22 -41
8z"/>
<path d="M15573 3395 c0 -6 8 -12 17 -12 9 -1 17 4 17 11 0 6 -8 12 -17 12 -9
0 -17 -5 -17 -11z"/>
<path d="M16416 3168 c9 -30 8 -30 28 -22 20 8 21 30 0 38 -28 11 -36 7 -28
-16z"/>
<path d="M16486 3125 c-6 -16 -9 -17 -16 -5 -6 9 -10 10 -10 3 0 -6 4 -14 8
-17 13 -8 35 10 30 25 -3 9 -7 7 -12 -6z"/>
<path d="M12264 3256 c-3 -8 -4 -23 -2 -33 5 -25 61 -25 66 0 7 37 -51 67 -64
33z"/>
<path d="M15847 3094 c9 -15 19 -21 21 -15 4 13 -16 41 -29 41 -5 0 -2 -12 8
-26z"/>
<path d="M15942 2950 c-8 -13 -8 -20 -2 -20 6 0 13 7 17 15 9 24 -1 27 -15 5z"/>
<path d="M15964 2855 c-4 -8 -3 -22 0 -31 5 -14 8 -14 21 0 19 19 19 32 0 40
-9 3 -18 -1 -21 -9z"/>
<path d="M15371 2354 c0 -11 3 -14 6 -6 3 7 2 16 -1 19 -3 4 -6 -2 -5 -13z"/>
<path d="M15380 2321 c0 -6 4 -13 10 -16 6 -3 7 1 4 9 -7 18 -14 21 -14 7z"/>
<path d="M11333 2655 c-9 -24 0 -25 27 -5 l25 20 -23 0 c-12 0 -25 -7 -29 -15z"/>
<path d="M12207 2663 c-12 -11 -8 -50 7 -62 19 -16 46 -3 46 23 0 34 -34 59
-53 39z"/>
<path d="M15452 2582 c4 -20 33 -23 33 -3 0 8 -8 15 -18 17 -12 2 -17 -3 -15
-14z"/>
<path d="M11184 2556 c-11 -29 1 -51 29 -54 32 -4 44 16 27 47 -12 24 -48 28
-56 7z"/>
<path d="M12054 2556 c-11 -28 1 -51 27 -54 31 -4 44 19 29 49 -12 22 -48 25
-56 5z"/>
<path d="M12443 1806 c-4 -8 -17 -15 -28 -17 -12 -3 -21 -14 -23 -27 -3 -17
-10 -22 -32 -22 -31 0 -60 -23 -60 -47 0 -12 -3 -13 -14 -4 -11 9 -17 8 -29
-4 -9 -8 -20 -15 -26 -15 -6 0 -16 -9 -23 -19 -6 -10 -18 -17 -25 -14 -7 3
-13 0 -13 -6 0 -6 -6 -11 -14 -11 -27 0 -27 -19 0 -60 17 -26 32 -39 41 -35 8
3 17 5 20 5 3 0 -2 12 -12 26 -9 14 -14 33 -10 42 5 13 8 12 21 -6 8 -12 24
-22 34 -22 31 0 81 33 77 51 -3 12 3 16 24 15 16 -1 30 -4 30 -8 1 -5 3 -12 4
-18 1 -5 3 -12 4 -15 0 -3 10 -1 21 5 23 12 27 50 6 50 -9 0 -12 8 -8 25 5 29
-4 32 -29 9 -19 -17 -39 -12 -39 10 0 20 52 27 71 10 20 -18 58 -18 65 1 4 8
10 13 14 10 4 -3 13 1 18 8 8 9 4 24 -14 55 -27 44 -38 51 -51 28z m16 -49
c12 -15 5 -27 -16 -27 -7 0 -13 9 -13 20 0 23 13 26 29 7z m-181 -130 c2 -10
-3 -17 -12 -17 -18 0 -29 16 -21 31 9 14 29 6 33 -14z"/>
<path d="M12100 1585 c-7 -8 -19 -15 -26 -15 -8 0 -19 -11 -26 -25 -23 -51 50
-101 91 -62 11 10 13 9 9 -3 -3 -8 -13 -17 -24 -18 -29 -6 -40 -20 -21 -28 26
-10 65 4 77 26 9 17 6 30 -16 70 -35 64 -48 75 -64 55z m20 -58 c0 -21 -12
-28 -27 -16 -19 16 -16 29 7 29 11 0 20 -6 20 -13z"/>
<path d="M11948 1489 c-10 -5 -18 -22 -18 -37 l-1 -27 -17 28 c-9 15 -22 27
-29 27 -18 0 -27 -20 -14 -33 7 -7 4 -14 -12 -21 -28 -15 -34 -52 -11 -77 25
-28 54 -24 113 18 2 1 -4 15 -14 30 l-18 28 21 -19 c47 -41 113 16 78 69 -17
26 -48 32 -78 14z m42 -23 c0 -2 -7 -7 -16 -10 -8 -3 -12 -2 -9 4 6 10 25 14
25 6z m10 -30 c0 -3 -4 -8 -10 -11 -5 -3 -10 -1 -10 4 0 6 5 11 10 11 6 0 10
-2 10 -4z m-98 -68 c-16 -16 -37 4 -28 28 6 16 8 16 23 1 13 -13 15 -19 5 -29z"/>
<path d="M11723 1337 c-10 -13 -24 -22 -31 -19 -6 2 -12 -2 -12 -9 0 -7 -3 -9
-7 -6 -9 9 -34 -13 -27 -24 3 -5 -6 -5 -20 1 -58 22 -67 -21 -15 -72 32 -33
55 -35 89 -9 22 18 23 22 11 44 -8 15 -10 34 -6 44 6 17 8 16 15 -4 12 -30 46
-38 75 -19 27 18 30 31 15 70 -13 35 -61 36 -87 3z m67 -37 c0 -5 -5 -10 -11
-10 -5 0 -7 5 -4 10 3 6 8 10 11 10 2 0 4 -4 4 -10z m-117 -64 c15 -23 15 -24
-4 -19 -23 6 -33 19 -24 33 9 14 11 13 28 -14z"/>
<path d="M11530 1215 c-7 -8 -19 -15 -26 -15 -21 0 -17 -21 11 -62 16 -24 30
-35 40 -32 19 8 19 15 0 40 -8 10 -15 25 -15 32 0 21 26 13 40 -13 14 -26 34
-33 45 -15 10 16 -43 80 -64 80 -10 0 -24 -7 -31 -15z"/>
<path d="M11423 1179 l-32 -20 36 -55 c20 -30 39 -54 42 -54 3 0 19 11 35 23
33 26 29 55 -4 35 -25 -16 -39 -2 -15 16 23 17 11 40 -14 26 -26 -13 -35 0
-11 17 11 8 18 19 15 24 -9 13 -16 11 -52 -12z"/>
<path d="M10863 2355 c-8 -23 3 -29 26 -13 21 15 18 28 -6 28 -7 0 -16 -7 -20
-15z"/>
<path d="M11711 2336 c-18 -22 3 -56 34 -56 19 0 25 5 25 23 0 41 -36 61 -59
33z"/>
<path d="M10615 2190 c-4 -6 -4 -22 -1 -36 7 -28 53 -34 63 -8 13 34 -44 74
-62 44z"/>
<path d="M16405 2120 c3 -5 8 -10 11 -10 2 0 4 5 4 10 0 6 -5 10 -11 10 -5 0
-7 -4 -4 -10z"/>
<path d="M16537 2124 c-3 -4 -2 -15 4 -25 11 -21 -10 -63 -37 -73 -8 -3 -14
-13 -14 -23 0 -15 2 -15 15 3 15 19 15 19 9 -1 -5 -16 -3 -15 12 5 10 14 18
28 16 33 -1 4 5 7 13 7 18 0 18 -4 2 43 -8 20 -16 34 -20 31z"/>
<path d="M16435 2110 c-10 -16 14 -50 30 -44 8 4 15 11 15 18 0 16 -38 38 -45
26z"/>
<path d="M11354 2106 c-11 -29 1 -51 29 -54 32 -4 44 16 27 47 -12 24 -48 28
-56 7z"/>
<path d="M11062 1918 c-29 -29 4 -76 42 -62 30 11 13 74 -19 74 -6 0 -16 -5
-23 -12z"/>
<path d="M10597 1623 c-4 -3 -7 -12 -7 -20 0 -11 4 -11 20 -1 11 7 20 16 20
20 0 10 -24 10 -33 1z"/>
<path d="M10440 1515 c-6 -8 -9 -23 -5 -34 12 -38 65 -36 65 3 0 40 -36 60
-60 31z"/>
<path d="M12892 1351 c-15 -9 -5 -41 13 -41 8 0 17 5 21 11 9 15 -18 40 -34
30z"/>
<path d="M12615 1170 c-3 -5 -2 -10 4 -10 5 0 13 5 16 10 3 6 2 10 -4 10 -5 0
-13 -4 -16 -10z"/>
<path d="M13380 960 c0 -5 7 -7 15 -4 8 4 15 8 15 10 0 2 -7 4 -15 4 -8 0 -15
-4 -15 -10z"/>
<path d="M12230 910 c0 -14 7 -20 21 -20 15 0 19 4 15 16 -3 9 -6 18 -6 20 0
2 -7 4 -15 4 -8 0 -15 -9 -15 -20z"/>
<path d="M13240 855 c0 -20 4 -26 18 -23 9 2 17 12 17 23 0 11 -8 21 -17 23
-14 3 -18 -3 -18 -23z"/>
<path d="M13142 793 c5 -26 38 -29 38 -4 0 15 -6 21 -21 21 -14 0 -19 -5 -17
-17z"/>
<path d="M13042 733 c5 -26 38 -29 38 -4 0 15 -6 21 -21 21 -14 0 -19 -5 -17
-17z"/>
<path d="M12020 790 c0 -5 4 -10 9 -10 6 0 13 5 16 10 3 6 -1 10 -9 10 -9 0
-16 -4 -16 -10z"/>
<path d="M11542 463 c5 -26 38 -29 38 -4 0 15 -6 21 -21 21 -14 0 -19 -5 -17
-17z"/>
<path d="M12642 468 c2 -12 10 -23 18 -23 22 0 19 39 -3 43 -15 3 -18 -1 -15
-20z"/>
<path d="M11178 353 c-21 -14 -38 -30 -38 -36 0 -22 62 -107 74 -100 6 4 30
19 52 33 l42 26 -32 52 c-17 28 -38 51 -46 51 -8 0 -32 -12 -52 -26z"/>
<path d="M11267 220 c-42 -26 -46 -32 -37 -50 10 -20 12 -20 39 -4 56 33 74
51 68 68 -9 22 -16 21 -70 -14z m24 -23 c-13 -13 -26 -3 -16 12 3 6 11 8 17 5
6 -4 6 -10 -1 -17z"/>
<path d="M12420 340 c0 -5 7 -7 15 -4 8 4 15 8 15 10 0 2 -7 4 -15 4 -8 0 -15
-4 -15 -10z"/>
<path d="M12450 320 c-14 -11 -19 -20 -12 -20 6 0 21 9 32 20 26 26 13 26 -20
0z"/>
<path d="M6706 9560 c-82 -48 -209 -136 -286 -198 -132 -106 -275 -259 -285
-303 -16 -72 25 -128 98 -136 l45 -5 128 129 c71 71 164 155 206 186 240 178
515 304 757 347 l106 18 -350 1 -350 1 -69 -40z"/>
<path d="M9763 9580 c2 -10 13 -28 25 -38 12 -11 22 -24 22 -30 0 -7 11 -14
25 -18 14 -4 24 -9 21 -12 -3 -2 6 -13 19 -24 14 -11 23 -23 20 -28 -3 -4 2
-13 10 -20 8 -7 15 -9 15 -4 0 5 5 1 11 -9 6 -9 15 -15 20 -11 5 3 -11 28 -36
56 -25 28 -60 75 -78 104 -23 39 -38 54 -54 54 -17 0 -22 -5 -20 -20z"/>
<path d="M7415 9409 c-193 -29 -411 -112 -594 -226 -154 -96 -335 -258 -403
-362 -25 -37 -22 -74 8 -110 21 -25 33 -31 67 -31 37 0 45 5 96 61 144 159
262 251 431 338 166 85 308 131 475 151 67 8 84 14 103 35 29 34 29 86 -1 121
-27 31 -84 38 -182 23z"/>
<path d="M7465 9060 c-171 -31 -309 -90 -484 -208 -144 -96 -351 -293 -351
-333 0 -41 36 -79 74 -79 28 0 47 14 127 93 131 128 254 218 394 287 131 64
277 104 398 109 54 2 75 84 32 126 -29 30 -51 30 -190 5z"/>
<path d="M17010 2249 l-44 -29 47 0 c46 0 47 1 47 30 0 17 -1 30 -2 29 -2 0
-23 -14 -48 -30z"/>
<path d="M16924 2208 c-3 -5 28 -7 68 -7 75 2 69 6 -15 11 -27 2 -51 0 -53 -4z"/>
<path d="M16787 1794 c-15 -8 -33 -12 -39 -8 -7 5 -8 3 -3 -6 6 -10 4 -12 -9
-7 -11 5 -15 3 -10 -5 5 -8 2 -9 -10 -5 -10 4 -15 3 -11 -3 6 -9 -8 -14 -28
-11 -5 1 -6 -3 -2 -9 6 -9 -8 -14 -28 -11 -5 1 -6 -3 -2 -9 3 -5 1 -11 -4 -11
-6 -1 -15 -2 -20 -3 -13 -1 -37 -26 -26 -26 4 0 0 -9 -10 -20 -10 -11 -21 -17
-25 -15 -4 3 -13 -2 -20 -10 -10 -13 -10 -19 4 -33 9 -10 16 -23 16 -29 0 -14
-49 -35 -62 -27 -6 4 -8 3 -5 -3 6 -10 -63 -34 -157 -53 -26 -6 -143 -15 -260
-20 -116 -6 -244 -17 -285 -25 -41 -8 -76 -13 -79 -11 -7 8 95 27 211 38 64 7
117 16 117 21 0 4 -5 5 -11 1 -7 -4 -10 -1 -7 7 3 8 11 13 17 11 7 -1 10 1 7
6 -3 5 10 38 29 74 30 55 33 67 20 72 -9 3 -13 2 -10 -4 7 -12 -32 -33 -47
-24 -7 5 -8 3 -3 -6 6 -9 4 -12 -7 -8 -8 4 -21 2 -29 -4 -11 -8 -9 -8 6 -4 20
6 20 6 0 -9 -19 -15 -20 -14 -28 22 -4 21 -7 50 -5 64 6 37 -17 32 -36 -8 -9
-19 -20 -32 -25 -29 -5 3 -8 -2 -7 -12 0 -9 -4 -16 -11 -15 -7 2 -10 -3 -7
-10 2 -7 -6 -22 -18 -33 l-23 -19 20 25 20 25 -22 -19 c-13 -10 -20 -23 -17
-28 8 -13 -47 -70 -62 -64 -7 3 -18 -3 -26 -12 -12 -16 -11 -16 7 -2 20 15 20
15 1 -8 -11 -12 -26 -20 -33 -17 -8 2 -11 1 -8 -5 3 -5 -13 -14 -35 -20 -45
-12 -55 -23 -12 -15 27 5 27 5 3 -5 -14 -6 -29 -9 -35 -7 -6 3 -11 -8 -11 -23
0 -16 4 -26 9 -22 5 3 7 -5 4 -16 -4 -14 -2 -20 4 -16 6 4 8 -2 3 -16 -5 -14
-3 -20 3 -16 6 3 18 -16 28 -46 29 -90 28 -89 76 -72 23 8 57 12 77 9 29 -4
32 -3 16 5 -15 8 -10 9 25 5 33 -4 41 -3 30 5 -11 8 27 9 130 6 97 -3 130 -2
100 4 -33 6 -13 8 75 6 76 -2 109 0 90 5 -22 6 -14 7 30 4 43 -3 54 -1 40 5
-15 7 -8 9 25 5 35 -4 40 -3 25 5 -16 8 -11 9 20 5 22 -2 34 -2 26 2 -18 7
118 55 137 48 7 -3 11 -1 8 3 -3 5 20 20 50 35 61 30 74 28 17 -2 -21 -11 -34
-20 -29 -21 14 0 144 78 152 92 4 7 -6 3 -22 -8 -47 -33 -61 -38 -29 -10 l30
25 -40 2 c-22 1 -43 1 -47 0 -4 0 -42 45 -84 100 -51 68 -73 104 -66 111 7 7
10 6 9 -3 -1 -8 29 -55 67 -106 l70 -92 45 41 c25 22 55 44 66 50 12 6 7 -1
-10 -17 l-30 -27 33 22 c17 12 32 25 32 31 0 5 24 21 53 35 28 15 54 28 55 29
6 5 -109 215 -116 215 -4 -1 -19 -8 -35 -16z"/>
<path d="M16893 1562 c-28 -15 -30 -18 -15 -32 26 -23 40 -20 51 12 16 46 14
47 -36 20z m5 -37 c-3 -3 -9 2 -12 12 -6 14 -5 15 5 6 7 -7 10 -15 7 -18z"/>
<path d="M16977 1530 c-33 -22 -63 -37 -68 -34 -5 3 -9 0 -9 -5 0 -6 4 -11 9
-11 10 0 131 79 131 86 0 7 -2 5 -63 -36z"/>
<path d="M16731 1456 l-22 -24 40 -4 c27 -2 42 1 46 10 3 7 0 10 -6 7 -6 -4
-13 2 -16 14 -7 27 -14 26 -42 -3z"/>
<path d="M16540 1280 c-8 -5 -10 -10 -5 -10 6 0 17 5 25 10 8 5 11 10 5 10 -5
0 -17 -5 -25 -10z"/>
<path d="M16498 1263 c7 -3 16 -2 19 1 4 3 -2 6 -13 5 -11 0 -14 -3 -6 -6z"/>
<path d="M15696 1180 c9 -34 10 -35 36 -22 21 11 21 12 2 7 -15 -4 -24 1 -32
17 -12 23 -12 23 -6 -2z"/>
<path d="M14107 980 c-16 -5 -364 -226 -775 -492 l-746 -483 165 -3 c109 -2
177 1 202 9 29 10 40 10 49 1 19 -19 30 -14 18 7 -5 11 -10 22 -10 25 0 10 70
47 80 41 5 -3 10 1 10 9 0 8 9 20 20 26 26 14 50 1 72 -38 14 -24 15 -32 5
-40 -10 -9 -17 -4 -31 18 -19 33 -46 40 -46 13 0 -10 7 -27 15 -37 8 -10 12
-23 9 -27 -3 -5 62 -9 145 -9 l151 0 442 286 c244 158 452 294 462 303 31 26
66 112 66 161 0 76 -18 121 -69 170 -64 63 -150 85 -234 60z m-157 -361 c0
-25 5 -32 31 -41 27 -9 29 -12 15 -20 -10 -6 -29 -7 -43 -3 -22 5 -25 4 -15
-8 10 -11 9 -17 -1 -26 -11 -9 -22 0 -51 44 -20 30 -36 59 -36 65 0 19 29 10
41 -12 l12 -22 14 27 c18 36 33 34 33 -4z m-82 -55 c51 -36 5 -122 -52 -96
-21 9 -23 8 -19 -8 8 -29 -33 -63 -68 -56 -24 4 -29 2 -29 -14 0 -23 -67 -77
-79 -64 -5 5 -23 31 -39 59 -31 50 -29 82 3 55 12 -10 19 -10 27 -2 16 16 51
15 67 0 10 -11 11 -10 5 5 -10 27 22 67 54 67 16 0 33 -5 39 -11 9 -9 10 -6 6
10 -4 15 2 30 17 46 27 29 38 31 68 9z m-299 -191 l24 -16 -29 -23 c-15 -13
-25 -26 -21 -30 3 -4 15 4 26 17 11 13 22 21 26 17 12 -12 -6 -49 -30 -60 -58
-26 -104 60 -53 96 28 20 28 20 57 -1z m-99 -53 c13 -9 13 -11 0 -20 -8 -5
-21 -10 -27 -10 -19 0 -16 -30 3 -37 10 -4 20 0 26 10 10 19 38 23 38 5 0 -18
-42 -58 -61 -58 -17 0 -59 44 -59 62 0 11 46 58 57 58 4 0 15 -5 23 -10z m-76
-80 c28 -43 32 -60 14 -60 -6 0 -22 -10 -35 -22 l-23 -22 -28 21 c-35 26 -37
72 -4 89 13 6 29 17 35 23 14 14 10 17 41 -29z m-145 -38 c-27 -18 -24 -35 5
-28 30 7 40 -3 18 -20 -14 -11 -15 -16 -4 -33 15 -26 15 -28 -2 -34 -14 -6
-76 76 -76 100 0 18 63 54 72 40 3 -6 -2 -17 -13 -25z"/>
<path d="M13820 521 c0 -15 6 -21 21 -21 25 0 22 33 -4 38 -12 2 -17 -3 -17
-17z"/>
<path d="M13722 458 c2 -12 10 -23 18 -23 22 0 19 39 -3 43 -15 3 -18 -1 -15
-20z"/>
<path d="M13624 406 c-7 -19 3 -36 22 -36 10 0 14 8 12 22 -4 26 -26 36 -34
14z"/>
<path d="M13520 340 c0 -5 7 -7 15 -4 8 4 15 8 15 10 0 2 -7 4 -15 4 -8 0 -15
-4 -15 -10z"/>
<path d="M13334 216 c-7 -19 3 -36 22 -36 10 0 14 8 12 22 -4 26 -26 36 -34
14z"/>
<path d="M17047 56 c-4 -10 -5 -21 -2 -24 9 -9 17 6 13 25 -3 17 -4 17 -11 -1z"/>
<path d="M13062 28 c2 -17 11 -24 31 -26 28 -3 28 -3 12 22 -22 33 -48 35 -43
4z"/>
<path d="M16494 19 c0 -15 7 -19 38 -19 36 0 37 1 26 20 -14 22 -24 25 -33 10
-5 -7 -11 -8 -19 -1 -8 7 -12 4 -12 -10z"/>
<path d="M11920 10 c0 -5 9 -10 21 -10 11 0 17 4 14 10 -8 13 -35 13 -35 0z"/>
</g>
</svg>
